G04 #@! TF.GenerationSoftware,KiCad,Pcbnew,7.0.5-0*
G04 #@! TF.CreationDate,2023-12-12T08:13:43-05:00*
G04 #@! TF.ProjectId,12v5VBuck,31327635-5642-4756-936b-2e6b69636164,rev?*
G04 #@! TF.SameCoordinates,Original*
G04 #@! TF.FileFunction,Legend,Top*
G04 #@! TF.FilePolarity,Positive*
%FSLAX46Y46*%
G04 Gerber Fmt 4.6, Leading zero omitted, Abs format (unit mm)*
G04 Created by KiCad (PCBNEW 7.0.5-0) date 2023-12-12 08:13:43*
%MOMM*%
%LPD*%
G01*
G04 APERTURE LIST*
G04 Aperture macros list*
%AMRoundRect*
0 Rectangle with rounded corners*
0 $1 Rounding radius*
0 $2 $3 $4 $5 $6 $7 $8 $9 X,Y pos of 4 corners*
0 Add a 4 corners polygon primitive as box body*
4,1,4,$2,$3,$4,$5,$6,$7,$8,$9,$2,$3,0*
0 Add four circle primitives for the rounded corners*
1,1,$1+$1,$2,$3*
1,1,$1+$1,$4,$5*
1,1,$1+$1,$6,$7*
1,1,$1+$1,$8,$9*
0 Add four rect primitives between the rounded corners*
20,1,$1+$1,$2,$3,$4,$5,0*
20,1,$1+$1,$4,$5,$6,$7,0*
20,1,$1+$1,$6,$7,$8,$9,0*
20,1,$1+$1,$8,$9,$2,$3,0*%
G04 Aperture macros list end*
%ADD10C,0.150000*%
%ADD11C,0.254000*%
%ADD12C,0.200000*%
%ADD13C,0.152400*%
%ADD14C,0.120000*%
%ADD15R,1.250000X0.600000*%
%ADD16C,1.701800*%
%ADD17RoundRect,0.250000X-0.262500X-0.450000X0.262500X-0.450000X0.262500X0.450000X-0.262500X0.450000X0*%
%ADD18RoundRect,0.235000X0.940000X1.465000X-0.940000X1.465000X-0.940000X-1.465000X0.940000X-1.465000X0*%
%ADD19RoundRect,0.250000X0.250000X0.475000X-0.250000X0.475000X-0.250000X-0.475000X0.250000X-0.475000X0*%
G04 APERTURE END LIST*
D10*
X64360588Y-32969819D02*
X63789160Y-32969819D01*
X64074874Y-32969819D02*
X64074874Y-31969819D01*
X64074874Y-31969819D02*
X63979636Y-32112676D01*
X63979636Y-32112676D02*
X63884398Y-32207914D01*
X63884398Y-32207914D02*
X63789160Y-32255533D01*
X64741541Y-32065057D02*
X64789160Y-32017438D01*
X64789160Y-32017438D02*
X64884398Y-31969819D01*
X64884398Y-31969819D02*
X65122493Y-31969819D01*
X65122493Y-31969819D02*
X65217731Y-32017438D01*
X65217731Y-32017438D02*
X65265350Y-32065057D01*
X65265350Y-32065057D02*
X65312969Y-32160295D01*
X65312969Y-32160295D02*
X65312969Y-32255533D01*
X65312969Y-32255533D02*
X65265350Y-32398390D01*
X65265350Y-32398390D02*
X64693922Y-32969819D01*
X64693922Y-32969819D02*
X65312969Y-32969819D01*
X65598684Y-31969819D02*
X65932017Y-32969819D01*
X65932017Y-32969819D02*
X66265350Y-31969819D01*
X67360588Y-32017438D02*
X67265350Y-31969819D01*
X67265350Y-31969819D02*
X67122493Y-31969819D01*
X67122493Y-31969819D02*
X66979636Y-32017438D01*
X66979636Y-32017438D02*
X66884398Y-32112676D01*
X66884398Y-32112676D02*
X66836779Y-32207914D01*
X66836779Y-32207914D02*
X66789160Y-32398390D01*
X66789160Y-32398390D02*
X66789160Y-32541247D01*
X66789160Y-32541247D02*
X66836779Y-32731723D01*
X66836779Y-32731723D02*
X66884398Y-32826961D01*
X66884398Y-32826961D02*
X66979636Y-32922200D01*
X66979636Y-32922200D02*
X67122493Y-32969819D01*
X67122493Y-32969819D02*
X67217731Y-32969819D01*
X67217731Y-32969819D02*
X67360588Y-32922200D01*
X67360588Y-32922200D02*
X67408207Y-32874580D01*
X67408207Y-32874580D02*
X67408207Y-32541247D01*
X67408207Y-32541247D02*
X67217731Y-32541247D01*
X67836779Y-32969819D02*
X67836779Y-31969819D01*
X67836779Y-31969819D02*
X68408207Y-32969819D01*
X68408207Y-32969819D02*
X68408207Y-31969819D01*
X68884398Y-32969819D02*
X68884398Y-31969819D01*
X68884398Y-31969819D02*
X69122493Y-31969819D01*
X69122493Y-31969819D02*
X69265350Y-32017438D01*
X69265350Y-32017438D02*
X69360588Y-32112676D01*
X69360588Y-32112676D02*
X69408207Y-32207914D01*
X69408207Y-32207914D02*
X69455826Y-32398390D01*
X69455826Y-32398390D02*
X69455826Y-32541247D01*
X69455826Y-32541247D02*
X69408207Y-32731723D01*
X69408207Y-32731723D02*
X69360588Y-32826961D01*
X69360588Y-32826961D02*
X69265350Y-32922200D01*
X69265350Y-32922200D02*
X69122493Y-32969819D01*
X69122493Y-32969819D02*
X68884398Y-32969819D01*
X59760588Y-32017438D02*
X59665350Y-31969819D01*
X59665350Y-31969819D02*
X59522493Y-31969819D01*
X59522493Y-31969819D02*
X59379636Y-32017438D01*
X59379636Y-32017438D02*
X59284398Y-32112676D01*
X59284398Y-32112676D02*
X59236779Y-32207914D01*
X59236779Y-32207914D02*
X59189160Y-32398390D01*
X59189160Y-32398390D02*
X59189160Y-32541247D01*
X59189160Y-32541247D02*
X59236779Y-32731723D01*
X59236779Y-32731723D02*
X59284398Y-32826961D01*
X59284398Y-32826961D02*
X59379636Y-32922200D01*
X59379636Y-32922200D02*
X59522493Y-32969819D01*
X59522493Y-32969819D02*
X59617731Y-32969819D01*
X59617731Y-32969819D02*
X59760588Y-32922200D01*
X59760588Y-32922200D02*
X59808207Y-32874580D01*
X59808207Y-32874580D02*
X59808207Y-32541247D01*
X59808207Y-32541247D02*
X59617731Y-32541247D01*
X60236779Y-32969819D02*
X60236779Y-31969819D01*
X60236779Y-31969819D02*
X60808207Y-32969819D01*
X60808207Y-32969819D02*
X60808207Y-31969819D01*
X61284398Y-32969819D02*
X61284398Y-31969819D01*
X61284398Y-31969819D02*
X61522493Y-31969819D01*
X61522493Y-31969819D02*
X61665350Y-32017438D01*
X61665350Y-32017438D02*
X61760588Y-32112676D01*
X61760588Y-32112676D02*
X61808207Y-32207914D01*
X61808207Y-32207914D02*
X61855826Y-32398390D01*
X61855826Y-32398390D02*
X61855826Y-32541247D01*
X61855826Y-32541247D02*
X61808207Y-32731723D01*
X61808207Y-32731723D02*
X61760588Y-32826961D01*
X61760588Y-32826961D02*
X61665350Y-32922200D01*
X61665350Y-32922200D02*
X61522493Y-32969819D01*
X61522493Y-32969819D02*
X61284398Y-32969819D01*
X56712969Y-31969819D02*
X56236779Y-31969819D01*
X56236779Y-31969819D02*
X56189160Y-32446009D01*
X56189160Y-32446009D02*
X56236779Y-32398390D01*
X56236779Y-32398390D02*
X56332017Y-32350771D01*
X56332017Y-32350771D02*
X56570112Y-32350771D01*
X56570112Y-32350771D02*
X56665350Y-32398390D01*
X56665350Y-32398390D02*
X56712969Y-32446009D01*
X56712969Y-32446009D02*
X56760588Y-32541247D01*
X56760588Y-32541247D02*
X56760588Y-32779342D01*
X56760588Y-32779342D02*
X56712969Y-32874580D01*
X56712969Y-32874580D02*
X56665350Y-32922200D01*
X56665350Y-32922200D02*
X56570112Y-32969819D01*
X56570112Y-32969819D02*
X56332017Y-32969819D01*
X56332017Y-32969819D02*
X56236779Y-32922200D01*
X56236779Y-32922200D02*
X56189160Y-32874580D01*
X57046303Y-31969819D02*
X57379636Y-32969819D01*
X57379636Y-32969819D02*
X57712969Y-31969819D01*
D11*
X65250237Y-22334318D02*
X65250237Y-21064318D01*
X66580714Y-22213365D02*
X66520238Y-22273842D01*
X66520238Y-22273842D02*
X66338809Y-22334318D01*
X66338809Y-22334318D02*
X66217857Y-22334318D01*
X66217857Y-22334318D02*
X66036428Y-22273842D01*
X66036428Y-22273842D02*
X65915476Y-22152889D01*
X65915476Y-22152889D02*
X65854999Y-22031937D01*
X65854999Y-22031937D02*
X65794523Y-21790032D01*
X65794523Y-21790032D02*
X65794523Y-21608603D01*
X65794523Y-21608603D02*
X65854999Y-21366699D01*
X65854999Y-21366699D02*
X65915476Y-21245746D01*
X65915476Y-21245746D02*
X66036428Y-21124794D01*
X66036428Y-21124794D02*
X66217857Y-21064318D01*
X66217857Y-21064318D02*
X66338809Y-21064318D01*
X66338809Y-21064318D02*
X66520238Y-21124794D01*
X66520238Y-21124794D02*
X66580714Y-21185270D01*
X67790238Y-22334318D02*
X67064523Y-22334318D01*
X67427380Y-22334318D02*
X67427380Y-21064318D01*
X67427380Y-21064318D02*
X67306428Y-21245746D01*
X67306428Y-21245746D02*
X67185476Y-21366699D01*
X67185476Y-21366699D02*
X67064523Y-21427175D01*
D10*
X58391666Y-30229819D02*
X58391666Y-30944104D01*
X58391666Y-30944104D02*
X58344047Y-31086961D01*
X58344047Y-31086961D02*
X58248809Y-31182200D01*
X58248809Y-31182200D02*
X58105952Y-31229819D01*
X58105952Y-31229819D02*
X58010714Y-31229819D01*
X58820238Y-30325057D02*
X58867857Y-30277438D01*
X58867857Y-30277438D02*
X58963095Y-30229819D01*
X58963095Y-30229819D02*
X59201190Y-30229819D01*
X59201190Y-30229819D02*
X59296428Y-30277438D01*
X59296428Y-30277438D02*
X59344047Y-30325057D01*
X59344047Y-30325057D02*
X59391666Y-30420295D01*
X59391666Y-30420295D02*
X59391666Y-30515533D01*
X59391666Y-30515533D02*
X59344047Y-30658390D01*
X59344047Y-30658390D02*
X58772619Y-31229819D01*
X58772619Y-31229819D02*
X59391666Y-31229819D01*
X68986093Y-24711666D02*
X68509902Y-25044999D01*
X68986093Y-25283094D02*
X67986093Y-25283094D01*
X67986093Y-25283094D02*
X67986093Y-24902142D01*
X67986093Y-24902142D02*
X68033712Y-24806904D01*
X68033712Y-24806904D02*
X68081331Y-24759285D01*
X68081331Y-24759285D02*
X68176569Y-24711666D01*
X68176569Y-24711666D02*
X68319426Y-24711666D01*
X68319426Y-24711666D02*
X68414664Y-24759285D01*
X68414664Y-24759285D02*
X68462283Y-24806904D01*
X68462283Y-24806904D02*
X68509902Y-24902142D01*
X68509902Y-24902142D02*
X68509902Y-25283094D01*
X68986093Y-23759285D02*
X68986093Y-24330713D01*
X68986093Y-24044999D02*
X67986093Y-24044999D01*
X67986093Y-24044999D02*
X68128950Y-24140237D01*
X68128950Y-24140237D02*
X68224188Y-24235475D01*
X68224188Y-24235475D02*
X68271807Y-24330713D01*
X59738333Y-26469819D02*
X59262143Y-26469819D01*
X59262143Y-26469819D02*
X59262143Y-25469819D01*
X60595476Y-26469819D02*
X60024048Y-26469819D01*
X60309762Y-26469819D02*
X60309762Y-25469819D01*
X60309762Y-25469819D02*
X60214524Y-25612676D01*
X60214524Y-25612676D02*
X60119286Y-25707914D01*
X60119286Y-25707914D02*
X60024048Y-25755533D01*
X64814580Y-18591666D02*
X64862200Y-18639285D01*
X64862200Y-18639285D02*
X64909819Y-18782142D01*
X64909819Y-18782142D02*
X64909819Y-18877380D01*
X64909819Y-18877380D02*
X64862200Y-19020237D01*
X64862200Y-19020237D02*
X64766961Y-19115475D01*
X64766961Y-19115475D02*
X64671723Y-19163094D01*
X64671723Y-19163094D02*
X64481247Y-19210713D01*
X64481247Y-19210713D02*
X64338390Y-19210713D01*
X64338390Y-19210713D02*
X64147914Y-19163094D01*
X64147914Y-19163094D02*
X64052676Y-19115475D01*
X64052676Y-19115475D02*
X63957438Y-19020237D01*
X63957438Y-19020237D02*
X63909819Y-18877380D01*
X63909819Y-18877380D02*
X63909819Y-18782142D01*
X63909819Y-18782142D02*
X63957438Y-18639285D01*
X63957438Y-18639285D02*
X64005057Y-18591666D01*
X63909819Y-18258332D02*
X63909819Y-17639285D01*
X63909819Y-17639285D02*
X64290771Y-17972618D01*
X64290771Y-17972618D02*
X64290771Y-17829761D01*
X64290771Y-17829761D02*
X64338390Y-17734523D01*
X64338390Y-17734523D02*
X64386009Y-17686904D01*
X64386009Y-17686904D02*
X64481247Y-17639285D01*
X64481247Y-17639285D02*
X64719342Y-17639285D01*
X64719342Y-17639285D02*
X64814580Y-17686904D01*
X64814580Y-17686904D02*
X64862200Y-17734523D01*
X64862200Y-17734523D02*
X64909819Y-17829761D01*
X64909819Y-17829761D02*
X64909819Y-18115475D01*
X64909819Y-18115475D02*
X64862200Y-18210713D01*
X64862200Y-18210713D02*
X64814580Y-18258332D01*
X66151666Y-30219819D02*
X66151666Y-30934104D01*
X66151666Y-30934104D02*
X66104047Y-31076961D01*
X66104047Y-31076961D02*
X66008809Y-31172200D01*
X66008809Y-31172200D02*
X65865952Y-31219819D01*
X65865952Y-31219819D02*
X65770714Y-31219819D01*
X67151666Y-31219819D02*
X66580238Y-31219819D01*
X66865952Y-31219819D02*
X66865952Y-30219819D01*
X66865952Y-30219819D02*
X66770714Y-30362676D01*
X66770714Y-30362676D02*
X66675476Y-30457914D01*
X66675476Y-30457914D02*
X66580238Y-30505533D01*
D12*
X64615000Y-20160000D02*
X65865000Y-20160000D01*
X66215000Y-20310000D02*
X66765000Y-20310000D01*
X66215000Y-23210000D02*
X66215000Y-20310000D01*
X66765000Y-20310000D02*
X66765000Y-23210000D01*
X66765000Y-23210000D02*
X66215000Y-23210000D01*
D13*
X62352000Y-33951999D02*
X62352000Y-26147999D01*
X62352000Y-26147999D02*
X55097999Y-26147999D01*
X55097999Y-33951999D02*
X62352000Y-33951999D01*
X55097999Y-26147999D02*
X55097999Y-33951999D01*
D14*
X65934210Y-23940000D02*
X66388338Y-23940000D01*
X65934210Y-25410000D02*
X66388338Y-25410000D01*
X63605000Y-25165000D02*
X63605000Y-23665000D01*
X63605000Y-18365000D02*
X63605000Y-19865000D01*
X63605000Y-18365000D02*
X56205000Y-18365000D01*
X56205000Y-25165000D02*
X63605000Y-25165000D01*
X56205000Y-25165000D02*
X56205000Y-23665000D01*
X56205000Y-18365000D02*
X56205000Y-19865000D01*
X67036252Y-17940000D02*
X66513748Y-17940000D01*
X67036252Y-19410000D02*
X66513748Y-19410000D01*
D13*
X70112000Y-33941999D02*
X70112000Y-26137999D01*
X70112000Y-26137999D02*
X62857999Y-26137999D01*
X62857999Y-33941999D02*
X70112000Y-33941999D01*
X62857999Y-26137999D02*
X62857999Y-33941999D01*
%LPC*%
D15*
X65240000Y-20810000D03*
X65240000Y-21760000D03*
X65240000Y-22710000D03*
X67740000Y-22710000D03*
X67740000Y-21760000D03*
X67740000Y-20810000D03*
D16*
X60475001Y-30775000D03*
X56974998Y-30775000D03*
D17*
X65248774Y-24675000D03*
X67073774Y-24675000D03*
D18*
X62930000Y-21765000D03*
X56880000Y-21765000D03*
D19*
X65825000Y-18675000D03*
X67725000Y-18675000D03*
D16*
X68235001Y-30765000D03*
X64734998Y-30765000D03*
%LPD*%
M02*
