%TF.GenerationSoftware,KiCad,Pcbnew,7.0.5-0*%
%TF.CreationDate,2023-12-12T07:42:35-05:00*%
%TF.ProjectId,12v5VBuck,31327635-5642-4756-936b-2e6b69636164,rev?*%
%TF.SameCoordinates,Original*%
%TF.FileFunction,Drillmap*%
%TF.FilePolarity,Positive*%
%FSLAX45Y45*%
G04 Gerber Fmt 4.5, Leading zero omitted, Abs format (unit mm)*
G04 Created by KiCad (PCBNEW 7.0.5-0) date 2023-12-12 07:42:35*
%MOMM*%
%LPD*%
G01*
G04 APERTURE LIST*
%ADD10C,0.100000*%
%ADD11C,0.200000*%
%ADD12C,0.030000*%
%ADD13C,0.050000*%
%ADD14C,0.060000*%
%ADD15C,0.119380*%
G04 APERTURE END LIST*
D10*
X5500000Y-1700000D02*
X7040000Y-1700000D01*
X7040000Y-3430000D01*
X5500000Y-3430000D01*
X5500000Y-1700000D01*
D11*
D12*
X5525000Y-3145000D02*
X5555000Y-3175000D01*
X5555000Y-3145000D02*
X5525000Y-3175000D01*
X5531285Y-2824782D02*
X5561285Y-2854782D01*
X5561285Y-2824782D02*
X5531285Y-2854782D01*
X5535000Y-1905000D02*
X5565000Y-1935000D01*
X5565000Y-1905000D02*
X5535000Y-1935000D01*
X5535000Y-2485000D02*
X5565000Y-2515000D01*
X5565000Y-2485000D02*
X5535000Y-2515000D01*
X5655000Y-3285000D02*
X5685000Y-3315000D01*
X5685000Y-3285000D02*
X5655000Y-3315000D01*
X5675000Y-1935000D02*
X5705000Y-1965000D01*
X5705000Y-1935000D02*
X5675000Y-1965000D01*
X5835000Y-2445000D02*
X5865000Y-2475000D01*
X5865000Y-2445000D02*
X5835000Y-2475000D01*
X5855000Y-3315000D02*
X5885000Y-3345000D01*
X5885000Y-3315000D02*
X5855000Y-3345000D01*
X5945000Y-2345000D02*
X5975000Y-2375000D01*
X5975000Y-2345000D02*
X5945000Y-2375000D01*
X5965000Y-2015000D02*
X5995000Y-2045000D01*
X5995000Y-2015000D02*
X5965000Y-2045000D01*
X5965000Y-3265000D02*
X5995000Y-3295000D01*
X5995000Y-3265000D02*
X5965000Y-3295000D01*
X6025000Y-2435000D02*
X6055000Y-2465000D01*
X6055000Y-2435000D02*
X6025000Y-2465000D01*
X6045000Y-1935000D02*
X6075000Y-1965000D01*
X6075000Y-1935000D02*
X6045000Y-1965000D01*
X6101500Y-3288500D02*
X6131500Y-3318500D01*
X6131500Y-3288500D02*
X6101500Y-3318500D01*
X6125000Y-2815000D02*
X6155000Y-2845000D01*
X6155000Y-2815000D02*
X6125000Y-2845000D01*
X6155000Y-2435000D02*
X6185000Y-2465000D01*
X6185000Y-2435000D02*
X6155000Y-2465000D01*
X6155000Y-2605000D02*
X6185000Y-2635000D01*
X6185000Y-2605000D02*
X6155000Y-2635000D01*
X6235000Y-3045000D02*
X6265000Y-3075000D01*
X6265000Y-3045000D02*
X6235000Y-3075000D01*
X6235000Y-3295000D02*
X6265000Y-3325000D01*
X6265000Y-3295000D02*
X6235000Y-3325000D01*
X6315000Y-2775000D02*
X6345000Y-2805000D01*
X6345000Y-2775000D02*
X6315000Y-2805000D01*
X6509000Y-1989000D02*
X6539000Y-2019000D01*
X6539000Y-1989000D02*
X6509000Y-2019000D01*
X6865000Y-1955000D02*
X6895000Y-1985000D01*
X6895000Y-1955000D02*
X6865000Y-1985000D01*
X6885000Y-2165000D02*
X6915000Y-2195000D01*
X6915000Y-2165000D02*
X6885000Y-2195000D01*
X6895000Y-2065000D02*
X6925000Y-2095000D01*
X6925000Y-2065000D02*
X6895000Y-2095000D01*
X6935000Y-2925000D02*
X6965000Y-2955000D01*
X6965000Y-2925000D02*
X6935000Y-2955000D01*
X6945000Y-1915000D02*
X6975000Y-1945000D01*
X6975000Y-1915000D02*
X6945000Y-1945000D01*
X6966031Y-2296031D02*
X6996031Y-2326031D01*
X6996031Y-2296031D02*
X6966031Y-2326031D01*
D13*
X6805000Y-2640000D02*
G75*
G03*
X6805000Y-2640000I-25000J0D01*
G01*
X6925000Y-1810000D02*
G75*
G03*
X6925000Y-1810000I-25000J0D01*
G01*
D14*
X5690000Y-2440000D02*
X5690000Y-2500000D01*
X5660000Y-2470000D02*
X5720000Y-2470000D01*
X6020000Y-2600000D02*
X6020000Y-2660000D01*
X5990000Y-2630000D02*
X6050000Y-2630000D01*
X6020000Y-2810000D02*
X6020000Y-2870000D01*
X5990000Y-2840000D02*
X6050000Y-2840000D01*
X6320000Y-2440000D02*
X6320000Y-2500000D01*
X6290000Y-2470000D02*
X6350000Y-2470000D01*
X6800000Y-2820000D02*
X6800000Y-2880000D01*
X6770000Y-2850000D02*
X6830000Y-2850000D01*
X6900000Y-2710000D02*
X6900000Y-2770000D01*
X6870000Y-2740000D02*
X6930000Y-2740000D01*
X6900000Y-3280000D02*
X6900000Y-3340000D01*
X6870000Y-3310000D02*
X6930000Y-3310000D01*
D15*
X5739707Y-3119708D02*
X5739707Y-3035292D01*
X5655292Y-3035292D01*
X5655292Y-3119708D01*
X5739707Y-3119708D01*
X6089708Y-3119708D02*
X6089708Y-3035292D01*
X6005292Y-3035292D01*
X6005292Y-3119708D01*
X6089708Y-3119708D01*
X6515707Y-3118708D02*
X6515707Y-3034292D01*
X6431292Y-3034292D01*
X6431292Y-3118708D01*
X6515707Y-3118708D01*
X6865708Y-3118708D02*
X6865708Y-3034292D01*
X6781292Y-3034292D01*
X6781292Y-3118708D01*
X6865708Y-3118708D01*
D11*
X5755777Y-3746484D02*
X5755777Y-3546484D01*
X5755777Y-3546484D02*
X5803396Y-3546484D01*
X5803396Y-3546484D02*
X5831967Y-3556008D01*
X5831967Y-3556008D02*
X5851015Y-3575055D01*
X5851015Y-3575055D02*
X5860539Y-3594103D01*
X5860539Y-3594103D02*
X5870062Y-3632198D01*
X5870062Y-3632198D02*
X5870062Y-3660769D01*
X5870062Y-3660769D02*
X5860539Y-3698865D01*
X5860539Y-3698865D02*
X5851015Y-3717912D01*
X5851015Y-3717912D02*
X5831967Y-3736960D01*
X5831967Y-3736960D02*
X5803396Y-3746484D01*
X5803396Y-3746484D02*
X5755777Y-3746484D01*
X5955777Y-3746484D02*
X5955777Y-3613150D01*
X5955777Y-3651246D02*
X5965301Y-3632198D01*
X5965301Y-3632198D02*
X5974824Y-3622674D01*
X5974824Y-3622674D02*
X5993872Y-3613150D01*
X5993872Y-3613150D02*
X6012920Y-3613150D01*
X6079586Y-3746484D02*
X6079586Y-3613150D01*
X6079586Y-3546484D02*
X6070062Y-3556008D01*
X6070062Y-3556008D02*
X6079586Y-3565531D01*
X6079586Y-3565531D02*
X6089110Y-3556008D01*
X6089110Y-3556008D02*
X6079586Y-3546484D01*
X6079586Y-3546484D02*
X6079586Y-3565531D01*
X6203396Y-3746484D02*
X6184348Y-3736960D01*
X6184348Y-3736960D02*
X6174824Y-3717912D01*
X6174824Y-3717912D02*
X6174824Y-3546484D01*
X6308158Y-3746484D02*
X6289110Y-3736960D01*
X6289110Y-3736960D02*
X6279586Y-3717912D01*
X6279586Y-3717912D02*
X6279586Y-3546484D01*
X6536729Y-3746484D02*
X6536729Y-3546484D01*
X6536729Y-3546484D02*
X6603396Y-3689341D01*
X6603396Y-3689341D02*
X6670062Y-3546484D01*
X6670062Y-3546484D02*
X6670062Y-3746484D01*
X6851015Y-3746484D02*
X6851015Y-3641722D01*
X6851015Y-3641722D02*
X6841491Y-3622674D01*
X6841491Y-3622674D02*
X6822443Y-3613150D01*
X6822443Y-3613150D02*
X6784348Y-3613150D01*
X6784348Y-3613150D02*
X6765301Y-3622674D01*
X6851015Y-3736960D02*
X6831967Y-3746484D01*
X6831967Y-3746484D02*
X6784348Y-3746484D01*
X6784348Y-3746484D02*
X6765301Y-3736960D01*
X6765301Y-3736960D02*
X6755777Y-3717912D01*
X6755777Y-3717912D02*
X6755777Y-3698865D01*
X6755777Y-3698865D02*
X6765301Y-3679817D01*
X6765301Y-3679817D02*
X6784348Y-3670293D01*
X6784348Y-3670293D02*
X6831967Y-3670293D01*
X6831967Y-3670293D02*
X6851015Y-3660769D01*
X6946253Y-3613150D02*
X6946253Y-3813150D01*
X6946253Y-3622674D02*
X6965301Y-3613150D01*
X6965301Y-3613150D02*
X7003396Y-3613150D01*
X7003396Y-3613150D02*
X7022443Y-3622674D01*
X7022443Y-3622674D02*
X7031967Y-3632198D01*
X7031967Y-3632198D02*
X7041491Y-3651246D01*
X7041491Y-3651246D02*
X7041491Y-3708388D01*
X7041491Y-3708388D02*
X7031967Y-3727436D01*
X7031967Y-3727436D02*
X7022443Y-3736960D01*
X7022443Y-3736960D02*
X7003396Y-3746484D01*
X7003396Y-3746484D02*
X6965301Y-3746484D01*
X6965301Y-3746484D02*
X6946253Y-3736960D01*
X7127205Y-3727436D02*
X7136729Y-3736960D01*
X7136729Y-3736960D02*
X7127205Y-3746484D01*
X7127205Y-3746484D02*
X7117682Y-3736960D01*
X7117682Y-3736960D02*
X7127205Y-3727436D01*
X7127205Y-3727436D02*
X7127205Y-3746484D01*
X7127205Y-3622674D02*
X7136729Y-3632198D01*
X7136729Y-3632198D02*
X7127205Y-3641722D01*
X7127205Y-3641722D02*
X7117682Y-3632198D01*
X7117682Y-3632198D02*
X7127205Y-3622674D01*
X7127205Y-3622674D02*
X7127205Y-3641722D01*
D12*
X5465000Y-4060000D02*
X5495000Y-4090000D01*
X5495000Y-4060000D02*
X5465000Y-4090000D01*
D11*
X5793872Y-3966484D02*
X5812920Y-3966484D01*
X5812920Y-3966484D02*
X5831967Y-3976008D01*
X5831967Y-3976008D02*
X5841491Y-3985531D01*
X5841491Y-3985531D02*
X5851015Y-4004579D01*
X5851015Y-4004579D02*
X5860539Y-4042674D01*
X5860539Y-4042674D02*
X5860539Y-4090293D01*
X5860539Y-4090293D02*
X5851015Y-4128388D01*
X5851015Y-4128388D02*
X5841491Y-4147436D01*
X5841491Y-4147436D02*
X5831967Y-4156960D01*
X5831967Y-4156960D02*
X5812920Y-4166484D01*
X5812920Y-4166484D02*
X5793872Y-4166484D01*
X5793872Y-4166484D02*
X5774824Y-4156960D01*
X5774824Y-4156960D02*
X5765301Y-4147436D01*
X5765301Y-4147436D02*
X5755777Y-4128388D01*
X5755777Y-4128388D02*
X5746253Y-4090293D01*
X5746253Y-4090293D02*
X5746253Y-4042674D01*
X5746253Y-4042674D02*
X5755777Y-4004579D01*
X5755777Y-4004579D02*
X5765301Y-3985531D01*
X5765301Y-3985531D02*
X5774824Y-3976008D01*
X5774824Y-3976008D02*
X5793872Y-3966484D01*
X5946253Y-4147436D02*
X5955777Y-4156960D01*
X5955777Y-4156960D02*
X5946253Y-4166484D01*
X5946253Y-4166484D02*
X5936729Y-4156960D01*
X5936729Y-4156960D02*
X5946253Y-4147436D01*
X5946253Y-4147436D02*
X5946253Y-4166484D01*
X6022443Y-3966484D02*
X6146253Y-3966484D01*
X6146253Y-3966484D02*
X6079586Y-4042674D01*
X6079586Y-4042674D02*
X6108158Y-4042674D01*
X6108158Y-4042674D02*
X6127205Y-4052198D01*
X6127205Y-4052198D02*
X6136729Y-4061722D01*
X6136729Y-4061722D02*
X6146253Y-4080769D01*
X6146253Y-4080769D02*
X6146253Y-4128388D01*
X6146253Y-4128388D02*
X6136729Y-4147436D01*
X6136729Y-4147436D02*
X6127205Y-4156960D01*
X6127205Y-4156960D02*
X6108158Y-4166484D01*
X6108158Y-4166484D02*
X6051015Y-4166484D01*
X6051015Y-4166484D02*
X6031967Y-4156960D01*
X6031967Y-4156960D02*
X6022443Y-4147436D01*
X6270062Y-3966484D02*
X6289110Y-3966484D01*
X6289110Y-3966484D02*
X6308158Y-3976008D01*
X6308158Y-3976008D02*
X6317682Y-3985531D01*
X6317682Y-3985531D02*
X6327205Y-4004579D01*
X6327205Y-4004579D02*
X6336729Y-4042674D01*
X6336729Y-4042674D02*
X6336729Y-4090293D01*
X6336729Y-4090293D02*
X6327205Y-4128388D01*
X6327205Y-4128388D02*
X6317682Y-4147436D01*
X6317682Y-4147436D02*
X6308158Y-4156960D01*
X6308158Y-4156960D02*
X6289110Y-4166484D01*
X6289110Y-4166484D02*
X6270062Y-4166484D01*
X6270062Y-4166484D02*
X6251015Y-4156960D01*
X6251015Y-4156960D02*
X6241491Y-4147436D01*
X6241491Y-4147436D02*
X6231967Y-4128388D01*
X6231967Y-4128388D02*
X6222443Y-4090293D01*
X6222443Y-4090293D02*
X6222443Y-4042674D01*
X6222443Y-4042674D02*
X6231967Y-4004579D01*
X6231967Y-4004579D02*
X6241491Y-3985531D01*
X6241491Y-3985531D02*
X6251015Y-3976008D01*
X6251015Y-3976008D02*
X6270062Y-3966484D01*
X6460539Y-3966484D02*
X6479586Y-3966484D01*
X6479586Y-3966484D02*
X6498634Y-3976008D01*
X6498634Y-3976008D02*
X6508158Y-3985531D01*
X6508158Y-3985531D02*
X6517682Y-4004579D01*
X6517682Y-4004579D02*
X6527205Y-4042674D01*
X6527205Y-4042674D02*
X6527205Y-4090293D01*
X6527205Y-4090293D02*
X6517682Y-4128388D01*
X6517682Y-4128388D02*
X6508158Y-4147436D01*
X6508158Y-4147436D02*
X6498634Y-4156960D01*
X6498634Y-4156960D02*
X6479586Y-4166484D01*
X6479586Y-4166484D02*
X6460539Y-4166484D01*
X6460539Y-4166484D02*
X6441491Y-4156960D01*
X6441491Y-4156960D02*
X6431967Y-4147436D01*
X6431967Y-4147436D02*
X6422443Y-4128388D01*
X6422443Y-4128388D02*
X6412920Y-4090293D01*
X6412920Y-4090293D02*
X6412920Y-4042674D01*
X6412920Y-4042674D02*
X6422443Y-4004579D01*
X6422443Y-4004579D02*
X6431967Y-3985531D01*
X6431967Y-3985531D02*
X6441491Y-3976008D01*
X6441491Y-3976008D02*
X6460539Y-3966484D01*
X6612920Y-4166484D02*
X6612920Y-4033150D01*
X6612920Y-4052198D02*
X6622443Y-4042674D01*
X6622443Y-4042674D02*
X6641491Y-4033150D01*
X6641491Y-4033150D02*
X6670063Y-4033150D01*
X6670063Y-4033150D02*
X6689110Y-4042674D01*
X6689110Y-4042674D02*
X6698634Y-4061722D01*
X6698634Y-4061722D02*
X6698634Y-4166484D01*
X6698634Y-4061722D02*
X6708158Y-4042674D01*
X6708158Y-4042674D02*
X6727205Y-4033150D01*
X6727205Y-4033150D02*
X6755777Y-4033150D01*
X6755777Y-4033150D02*
X6774824Y-4042674D01*
X6774824Y-4042674D02*
X6784348Y-4061722D01*
X6784348Y-4061722D02*
X6784348Y-4166484D01*
X6879586Y-4166484D02*
X6879586Y-4033150D01*
X6879586Y-4052198D02*
X6889110Y-4042674D01*
X6889110Y-4042674D02*
X6908158Y-4033150D01*
X6908158Y-4033150D02*
X6936729Y-4033150D01*
X6936729Y-4033150D02*
X6955777Y-4042674D01*
X6955777Y-4042674D02*
X6965301Y-4061722D01*
X6965301Y-4061722D02*
X6965301Y-4166484D01*
X6965301Y-4061722D02*
X6974824Y-4042674D01*
X6974824Y-4042674D02*
X6993872Y-4033150D01*
X6993872Y-4033150D02*
X7022443Y-4033150D01*
X7022443Y-4033150D02*
X7041491Y-4042674D01*
X7041491Y-4042674D02*
X7051015Y-4061722D01*
X7051015Y-4061722D02*
X7051015Y-4166484D01*
X7441491Y-3956960D02*
X7270063Y-4214103D01*
X7698634Y-3966484D02*
X7717682Y-3966484D01*
X7717682Y-3966484D02*
X7736729Y-3976008D01*
X7736729Y-3976008D02*
X7746253Y-3985531D01*
X7746253Y-3985531D02*
X7755777Y-4004579D01*
X7755777Y-4004579D02*
X7765301Y-4042674D01*
X7765301Y-4042674D02*
X7765301Y-4090293D01*
X7765301Y-4090293D02*
X7755777Y-4128388D01*
X7755777Y-4128388D02*
X7746253Y-4147436D01*
X7746253Y-4147436D02*
X7736729Y-4156960D01*
X7736729Y-4156960D02*
X7717682Y-4166484D01*
X7717682Y-4166484D02*
X7698634Y-4166484D01*
X7698634Y-4166484D02*
X7679586Y-4156960D01*
X7679586Y-4156960D02*
X7670063Y-4147436D01*
X7670063Y-4147436D02*
X7660539Y-4128388D01*
X7660539Y-4128388D02*
X7651015Y-4090293D01*
X7651015Y-4090293D02*
X7651015Y-4042674D01*
X7651015Y-4042674D02*
X7660539Y-4004579D01*
X7660539Y-4004579D02*
X7670063Y-3985531D01*
X7670063Y-3985531D02*
X7679586Y-3976008D01*
X7679586Y-3976008D02*
X7698634Y-3966484D01*
X7851015Y-4147436D02*
X7860539Y-4156960D01*
X7860539Y-4156960D02*
X7851015Y-4166484D01*
X7851015Y-4166484D02*
X7841491Y-4156960D01*
X7841491Y-4156960D02*
X7851015Y-4147436D01*
X7851015Y-4147436D02*
X7851015Y-4166484D01*
X7984348Y-3966484D02*
X8003396Y-3966484D01*
X8003396Y-3966484D02*
X8022444Y-3976008D01*
X8022444Y-3976008D02*
X8031967Y-3985531D01*
X8031967Y-3985531D02*
X8041491Y-4004579D01*
X8041491Y-4004579D02*
X8051015Y-4042674D01*
X8051015Y-4042674D02*
X8051015Y-4090293D01*
X8051015Y-4090293D02*
X8041491Y-4128388D01*
X8041491Y-4128388D02*
X8031967Y-4147436D01*
X8031967Y-4147436D02*
X8022444Y-4156960D01*
X8022444Y-4156960D02*
X8003396Y-4166484D01*
X8003396Y-4166484D02*
X7984348Y-4166484D01*
X7984348Y-4166484D02*
X7965301Y-4156960D01*
X7965301Y-4156960D02*
X7955777Y-4147436D01*
X7955777Y-4147436D02*
X7946253Y-4128388D01*
X7946253Y-4128388D02*
X7936729Y-4090293D01*
X7936729Y-4090293D02*
X7936729Y-4042674D01*
X7936729Y-4042674D02*
X7946253Y-4004579D01*
X7946253Y-4004579D02*
X7955777Y-3985531D01*
X7955777Y-3985531D02*
X7965301Y-3976008D01*
X7965301Y-3976008D02*
X7984348Y-3966484D01*
X8241491Y-4166484D02*
X8127206Y-4166484D01*
X8184348Y-4166484D02*
X8184348Y-3966484D01*
X8184348Y-3966484D02*
X8165301Y-3995055D01*
X8165301Y-3995055D02*
X8146253Y-4014103D01*
X8146253Y-4014103D02*
X8127206Y-4023627D01*
X8431968Y-4166484D02*
X8317682Y-4166484D01*
X8374825Y-4166484D02*
X8374825Y-3966484D01*
X8374825Y-3966484D02*
X8355777Y-3995055D01*
X8355777Y-3995055D02*
X8336729Y-4014103D01*
X8336729Y-4014103D02*
X8317682Y-4023627D01*
X8546253Y-4052198D02*
X8527206Y-4042674D01*
X8527206Y-4042674D02*
X8517682Y-4033150D01*
X8517682Y-4033150D02*
X8508158Y-4014103D01*
X8508158Y-4014103D02*
X8508158Y-4004579D01*
X8508158Y-4004579D02*
X8517682Y-3985531D01*
X8517682Y-3985531D02*
X8527206Y-3976008D01*
X8527206Y-3976008D02*
X8546253Y-3966484D01*
X8546253Y-3966484D02*
X8584349Y-3966484D01*
X8584349Y-3966484D02*
X8603396Y-3976008D01*
X8603396Y-3976008D02*
X8612920Y-3985531D01*
X8612920Y-3985531D02*
X8622444Y-4004579D01*
X8622444Y-4004579D02*
X8622444Y-4014103D01*
X8622444Y-4014103D02*
X8612920Y-4033150D01*
X8612920Y-4033150D02*
X8603396Y-4042674D01*
X8603396Y-4042674D02*
X8584349Y-4052198D01*
X8584349Y-4052198D02*
X8546253Y-4052198D01*
X8546253Y-4052198D02*
X8527206Y-4061722D01*
X8527206Y-4061722D02*
X8517682Y-4071246D01*
X8517682Y-4071246D02*
X8508158Y-4090293D01*
X8508158Y-4090293D02*
X8508158Y-4128388D01*
X8508158Y-4128388D02*
X8517682Y-4147436D01*
X8517682Y-4147436D02*
X8527206Y-4156960D01*
X8527206Y-4156960D02*
X8546253Y-4166484D01*
X8546253Y-4166484D02*
X8584349Y-4166484D01*
X8584349Y-4166484D02*
X8603396Y-4156960D01*
X8603396Y-4156960D02*
X8612920Y-4147436D01*
X8612920Y-4147436D02*
X8622444Y-4128388D01*
X8622444Y-4128388D02*
X8622444Y-4090293D01*
X8622444Y-4090293D02*
X8612920Y-4071246D01*
X8612920Y-4071246D02*
X8603396Y-4061722D01*
X8603396Y-4061722D02*
X8584349Y-4052198D01*
X8698634Y-3966484D02*
X8698634Y-4004579D01*
X8774825Y-3966484D02*
X8774825Y-4004579D01*
X9070063Y-4242674D02*
X9060539Y-4233150D01*
X9060539Y-4233150D02*
X9041491Y-4204579D01*
X9041491Y-4204579D02*
X9031968Y-4185531D01*
X9031968Y-4185531D02*
X9022444Y-4156960D01*
X9022444Y-4156960D02*
X9012920Y-4109341D01*
X9012920Y-4109341D02*
X9012920Y-4071246D01*
X9012920Y-4071246D02*
X9022444Y-4023627D01*
X9022444Y-4023627D02*
X9031968Y-3995055D01*
X9031968Y-3995055D02*
X9041491Y-3976008D01*
X9041491Y-3976008D02*
X9060539Y-3947436D01*
X9060539Y-3947436D02*
X9070063Y-3937912D01*
X9136730Y-3985531D02*
X9146253Y-3976008D01*
X9146253Y-3976008D02*
X9165301Y-3966484D01*
X9165301Y-3966484D02*
X9212920Y-3966484D01*
X9212920Y-3966484D02*
X9231968Y-3976008D01*
X9231968Y-3976008D02*
X9241491Y-3985531D01*
X9241491Y-3985531D02*
X9251015Y-4004579D01*
X9251015Y-4004579D02*
X9251015Y-4023627D01*
X9251015Y-4023627D02*
X9241491Y-4052198D01*
X9241491Y-4052198D02*
X9127206Y-4166484D01*
X9127206Y-4166484D02*
X9251015Y-4166484D01*
X9317682Y-3966484D02*
X9451015Y-3966484D01*
X9451015Y-3966484D02*
X9365301Y-4166484D01*
X9679587Y-4166484D02*
X9679587Y-3966484D01*
X9765301Y-4166484D02*
X9765301Y-4061722D01*
X9765301Y-4061722D02*
X9755777Y-4042674D01*
X9755777Y-4042674D02*
X9736730Y-4033150D01*
X9736730Y-4033150D02*
X9708158Y-4033150D01*
X9708158Y-4033150D02*
X9689111Y-4042674D01*
X9689111Y-4042674D02*
X9679587Y-4052198D01*
X9889111Y-4166484D02*
X9870063Y-4156960D01*
X9870063Y-4156960D02*
X9860539Y-4147436D01*
X9860539Y-4147436D02*
X9851015Y-4128388D01*
X9851015Y-4128388D02*
X9851015Y-4071246D01*
X9851015Y-4071246D02*
X9860539Y-4052198D01*
X9860539Y-4052198D02*
X9870063Y-4042674D01*
X9870063Y-4042674D02*
X9889111Y-4033150D01*
X9889111Y-4033150D02*
X9917682Y-4033150D01*
X9917682Y-4033150D02*
X9936730Y-4042674D01*
X9936730Y-4042674D02*
X9946253Y-4052198D01*
X9946253Y-4052198D02*
X9955777Y-4071246D01*
X9955777Y-4071246D02*
X9955777Y-4128388D01*
X9955777Y-4128388D02*
X9946253Y-4147436D01*
X9946253Y-4147436D02*
X9936730Y-4156960D01*
X9936730Y-4156960D02*
X9917682Y-4166484D01*
X9917682Y-4166484D02*
X9889111Y-4166484D01*
X10070063Y-4166484D02*
X10051015Y-4156960D01*
X10051015Y-4156960D02*
X10041492Y-4137912D01*
X10041492Y-4137912D02*
X10041492Y-3966484D01*
X10222444Y-4156960D02*
X10203396Y-4166484D01*
X10203396Y-4166484D02*
X10165301Y-4166484D01*
X10165301Y-4166484D02*
X10146253Y-4156960D01*
X10146253Y-4156960D02*
X10136730Y-4137912D01*
X10136730Y-4137912D02*
X10136730Y-4061722D01*
X10136730Y-4061722D02*
X10146253Y-4042674D01*
X10146253Y-4042674D02*
X10165301Y-4033150D01*
X10165301Y-4033150D02*
X10203396Y-4033150D01*
X10203396Y-4033150D02*
X10222444Y-4042674D01*
X10222444Y-4042674D02*
X10231968Y-4061722D01*
X10231968Y-4061722D02*
X10231968Y-4080769D01*
X10231968Y-4080769D02*
X10136730Y-4099817D01*
X10308158Y-4156960D02*
X10327206Y-4166484D01*
X10327206Y-4166484D02*
X10365301Y-4166484D01*
X10365301Y-4166484D02*
X10384349Y-4156960D01*
X10384349Y-4156960D02*
X10393873Y-4137912D01*
X10393873Y-4137912D02*
X10393873Y-4128388D01*
X10393873Y-4128388D02*
X10384349Y-4109341D01*
X10384349Y-4109341D02*
X10365301Y-4099817D01*
X10365301Y-4099817D02*
X10336730Y-4099817D01*
X10336730Y-4099817D02*
X10317682Y-4090293D01*
X10317682Y-4090293D02*
X10308158Y-4071246D01*
X10308158Y-4071246D02*
X10308158Y-4061722D01*
X10308158Y-4061722D02*
X10317682Y-4042674D01*
X10317682Y-4042674D02*
X10336730Y-4033150D01*
X10336730Y-4033150D02*
X10365301Y-4033150D01*
X10365301Y-4033150D02*
X10384349Y-4042674D01*
X10460539Y-4242674D02*
X10470063Y-4233150D01*
X10470063Y-4233150D02*
X10489111Y-4204579D01*
X10489111Y-4204579D02*
X10498634Y-4185531D01*
X10498634Y-4185531D02*
X10508158Y-4156960D01*
X10508158Y-4156960D02*
X10517682Y-4109341D01*
X10517682Y-4109341D02*
X10517682Y-4071246D01*
X10517682Y-4071246D02*
X10508158Y-4023627D01*
X10508158Y-4023627D02*
X10498634Y-3995055D01*
X10498634Y-3995055D02*
X10489111Y-3976008D01*
X10489111Y-3976008D02*
X10470063Y-3947436D01*
X10470063Y-3947436D02*
X10460539Y-3937912D01*
D13*
X5495000Y-4339000D02*
G75*
G03*
X5495000Y-4339000I-25000J0D01*
G01*
D11*
X5793872Y-4230484D02*
X5812920Y-4230484D01*
X5812920Y-4230484D02*
X5831967Y-4240008D01*
X5831967Y-4240008D02*
X5841491Y-4249531D01*
X5841491Y-4249531D02*
X5851015Y-4268579D01*
X5851015Y-4268579D02*
X5860539Y-4306674D01*
X5860539Y-4306674D02*
X5860539Y-4354293D01*
X5860539Y-4354293D02*
X5851015Y-4392389D01*
X5851015Y-4392389D02*
X5841491Y-4411436D01*
X5841491Y-4411436D02*
X5831967Y-4420960D01*
X5831967Y-4420960D02*
X5812920Y-4430484D01*
X5812920Y-4430484D02*
X5793872Y-4430484D01*
X5793872Y-4430484D02*
X5774824Y-4420960D01*
X5774824Y-4420960D02*
X5765301Y-4411436D01*
X5765301Y-4411436D02*
X5755777Y-4392389D01*
X5755777Y-4392389D02*
X5746253Y-4354293D01*
X5746253Y-4354293D02*
X5746253Y-4306674D01*
X5746253Y-4306674D02*
X5755777Y-4268579D01*
X5755777Y-4268579D02*
X5765301Y-4249531D01*
X5765301Y-4249531D02*
X5774824Y-4240008D01*
X5774824Y-4240008D02*
X5793872Y-4230484D01*
X5946253Y-4411436D02*
X5955777Y-4420960D01*
X5955777Y-4420960D02*
X5946253Y-4430484D01*
X5946253Y-4430484D02*
X5936729Y-4420960D01*
X5936729Y-4420960D02*
X5946253Y-4411436D01*
X5946253Y-4411436D02*
X5946253Y-4430484D01*
X6136729Y-4230484D02*
X6041491Y-4230484D01*
X6041491Y-4230484D02*
X6031967Y-4325722D01*
X6031967Y-4325722D02*
X6041491Y-4316198D01*
X6041491Y-4316198D02*
X6060539Y-4306674D01*
X6060539Y-4306674D02*
X6108158Y-4306674D01*
X6108158Y-4306674D02*
X6127205Y-4316198D01*
X6127205Y-4316198D02*
X6136729Y-4325722D01*
X6136729Y-4325722D02*
X6146253Y-4344770D01*
X6146253Y-4344770D02*
X6146253Y-4392389D01*
X6146253Y-4392389D02*
X6136729Y-4411436D01*
X6136729Y-4411436D02*
X6127205Y-4420960D01*
X6127205Y-4420960D02*
X6108158Y-4430484D01*
X6108158Y-4430484D02*
X6060539Y-4430484D01*
X6060539Y-4430484D02*
X6041491Y-4420960D01*
X6041491Y-4420960D02*
X6031967Y-4411436D01*
X6270062Y-4230484D02*
X6289110Y-4230484D01*
X6289110Y-4230484D02*
X6308158Y-4240008D01*
X6308158Y-4240008D02*
X6317682Y-4249531D01*
X6317682Y-4249531D02*
X6327205Y-4268579D01*
X6327205Y-4268579D02*
X6336729Y-4306674D01*
X6336729Y-4306674D02*
X6336729Y-4354293D01*
X6336729Y-4354293D02*
X6327205Y-4392389D01*
X6327205Y-4392389D02*
X6317682Y-4411436D01*
X6317682Y-4411436D02*
X6308158Y-4420960D01*
X6308158Y-4420960D02*
X6289110Y-4430484D01*
X6289110Y-4430484D02*
X6270062Y-4430484D01*
X6270062Y-4430484D02*
X6251015Y-4420960D01*
X6251015Y-4420960D02*
X6241491Y-4411436D01*
X6241491Y-4411436D02*
X6231967Y-4392389D01*
X6231967Y-4392389D02*
X6222443Y-4354293D01*
X6222443Y-4354293D02*
X6222443Y-4306674D01*
X6222443Y-4306674D02*
X6231967Y-4268579D01*
X6231967Y-4268579D02*
X6241491Y-4249531D01*
X6241491Y-4249531D02*
X6251015Y-4240008D01*
X6251015Y-4240008D02*
X6270062Y-4230484D01*
X6460539Y-4230484D02*
X6479586Y-4230484D01*
X6479586Y-4230484D02*
X6498634Y-4240008D01*
X6498634Y-4240008D02*
X6508158Y-4249531D01*
X6508158Y-4249531D02*
X6517682Y-4268579D01*
X6517682Y-4268579D02*
X6527205Y-4306674D01*
X6527205Y-4306674D02*
X6527205Y-4354293D01*
X6527205Y-4354293D02*
X6517682Y-4392389D01*
X6517682Y-4392389D02*
X6508158Y-4411436D01*
X6508158Y-4411436D02*
X6498634Y-4420960D01*
X6498634Y-4420960D02*
X6479586Y-4430484D01*
X6479586Y-4430484D02*
X6460539Y-4430484D01*
X6460539Y-4430484D02*
X6441491Y-4420960D01*
X6441491Y-4420960D02*
X6431967Y-4411436D01*
X6431967Y-4411436D02*
X6422443Y-4392389D01*
X6422443Y-4392389D02*
X6412920Y-4354293D01*
X6412920Y-4354293D02*
X6412920Y-4306674D01*
X6412920Y-4306674D02*
X6422443Y-4268579D01*
X6422443Y-4268579D02*
X6431967Y-4249531D01*
X6431967Y-4249531D02*
X6441491Y-4240008D01*
X6441491Y-4240008D02*
X6460539Y-4230484D01*
X6612920Y-4430484D02*
X6612920Y-4297150D01*
X6612920Y-4316198D02*
X6622443Y-4306674D01*
X6622443Y-4306674D02*
X6641491Y-4297150D01*
X6641491Y-4297150D02*
X6670063Y-4297150D01*
X6670063Y-4297150D02*
X6689110Y-4306674D01*
X6689110Y-4306674D02*
X6698634Y-4325722D01*
X6698634Y-4325722D02*
X6698634Y-4430484D01*
X6698634Y-4325722D02*
X6708158Y-4306674D01*
X6708158Y-4306674D02*
X6727205Y-4297150D01*
X6727205Y-4297150D02*
X6755777Y-4297150D01*
X6755777Y-4297150D02*
X6774824Y-4306674D01*
X6774824Y-4306674D02*
X6784348Y-4325722D01*
X6784348Y-4325722D02*
X6784348Y-4430484D01*
X6879586Y-4430484D02*
X6879586Y-4297150D01*
X6879586Y-4316198D02*
X6889110Y-4306674D01*
X6889110Y-4306674D02*
X6908158Y-4297150D01*
X6908158Y-4297150D02*
X6936729Y-4297150D01*
X6936729Y-4297150D02*
X6955777Y-4306674D01*
X6955777Y-4306674D02*
X6965301Y-4325722D01*
X6965301Y-4325722D02*
X6965301Y-4430484D01*
X6965301Y-4325722D02*
X6974824Y-4306674D01*
X6974824Y-4306674D02*
X6993872Y-4297150D01*
X6993872Y-4297150D02*
X7022443Y-4297150D01*
X7022443Y-4297150D02*
X7041491Y-4306674D01*
X7041491Y-4306674D02*
X7051015Y-4325722D01*
X7051015Y-4325722D02*
X7051015Y-4430484D01*
X7441491Y-4220960D02*
X7270063Y-4478103D01*
X7698634Y-4230484D02*
X7717682Y-4230484D01*
X7717682Y-4230484D02*
X7736729Y-4240008D01*
X7736729Y-4240008D02*
X7746253Y-4249531D01*
X7746253Y-4249531D02*
X7755777Y-4268579D01*
X7755777Y-4268579D02*
X7765301Y-4306674D01*
X7765301Y-4306674D02*
X7765301Y-4354293D01*
X7765301Y-4354293D02*
X7755777Y-4392389D01*
X7755777Y-4392389D02*
X7746253Y-4411436D01*
X7746253Y-4411436D02*
X7736729Y-4420960D01*
X7736729Y-4420960D02*
X7717682Y-4430484D01*
X7717682Y-4430484D02*
X7698634Y-4430484D01*
X7698634Y-4430484D02*
X7679586Y-4420960D01*
X7679586Y-4420960D02*
X7670063Y-4411436D01*
X7670063Y-4411436D02*
X7660539Y-4392389D01*
X7660539Y-4392389D02*
X7651015Y-4354293D01*
X7651015Y-4354293D02*
X7651015Y-4306674D01*
X7651015Y-4306674D02*
X7660539Y-4268579D01*
X7660539Y-4268579D02*
X7670063Y-4249531D01*
X7670063Y-4249531D02*
X7679586Y-4240008D01*
X7679586Y-4240008D02*
X7698634Y-4230484D01*
X7851015Y-4411436D02*
X7860539Y-4420960D01*
X7860539Y-4420960D02*
X7851015Y-4430484D01*
X7851015Y-4430484D02*
X7841491Y-4420960D01*
X7841491Y-4420960D02*
X7851015Y-4411436D01*
X7851015Y-4411436D02*
X7851015Y-4430484D01*
X7984348Y-4230484D02*
X8003396Y-4230484D01*
X8003396Y-4230484D02*
X8022444Y-4240008D01*
X8022444Y-4240008D02*
X8031967Y-4249531D01*
X8031967Y-4249531D02*
X8041491Y-4268579D01*
X8041491Y-4268579D02*
X8051015Y-4306674D01*
X8051015Y-4306674D02*
X8051015Y-4354293D01*
X8051015Y-4354293D02*
X8041491Y-4392389D01*
X8041491Y-4392389D02*
X8031967Y-4411436D01*
X8031967Y-4411436D02*
X8022444Y-4420960D01*
X8022444Y-4420960D02*
X8003396Y-4430484D01*
X8003396Y-4430484D02*
X7984348Y-4430484D01*
X7984348Y-4430484D02*
X7965301Y-4420960D01*
X7965301Y-4420960D02*
X7955777Y-4411436D01*
X7955777Y-4411436D02*
X7946253Y-4392389D01*
X7946253Y-4392389D02*
X7936729Y-4354293D01*
X7936729Y-4354293D02*
X7936729Y-4306674D01*
X7936729Y-4306674D02*
X7946253Y-4268579D01*
X7946253Y-4268579D02*
X7955777Y-4249531D01*
X7955777Y-4249531D02*
X7965301Y-4240008D01*
X7965301Y-4240008D02*
X7984348Y-4230484D01*
X8241491Y-4430484D02*
X8127206Y-4430484D01*
X8184348Y-4430484D02*
X8184348Y-4230484D01*
X8184348Y-4230484D02*
X8165301Y-4259055D01*
X8165301Y-4259055D02*
X8146253Y-4278103D01*
X8146253Y-4278103D02*
X8127206Y-4287627D01*
X8336729Y-4430484D02*
X8374825Y-4430484D01*
X8374825Y-4430484D02*
X8393872Y-4420960D01*
X8393872Y-4420960D02*
X8403396Y-4411436D01*
X8403396Y-4411436D02*
X8422444Y-4382865D01*
X8422444Y-4382865D02*
X8431968Y-4344770D01*
X8431968Y-4344770D02*
X8431968Y-4268579D01*
X8431968Y-4268579D02*
X8422444Y-4249531D01*
X8422444Y-4249531D02*
X8412920Y-4240008D01*
X8412920Y-4240008D02*
X8393872Y-4230484D01*
X8393872Y-4230484D02*
X8355777Y-4230484D01*
X8355777Y-4230484D02*
X8336729Y-4240008D01*
X8336729Y-4240008D02*
X8327206Y-4249531D01*
X8327206Y-4249531D02*
X8317682Y-4268579D01*
X8317682Y-4268579D02*
X8317682Y-4316198D01*
X8317682Y-4316198D02*
X8327206Y-4335246D01*
X8327206Y-4335246D02*
X8336729Y-4344770D01*
X8336729Y-4344770D02*
X8355777Y-4354293D01*
X8355777Y-4354293D02*
X8393872Y-4354293D01*
X8393872Y-4354293D02*
X8412920Y-4344770D01*
X8412920Y-4344770D02*
X8422444Y-4335246D01*
X8422444Y-4335246D02*
X8431968Y-4316198D01*
X8498634Y-4230484D02*
X8631968Y-4230484D01*
X8631968Y-4230484D02*
X8546253Y-4430484D01*
X8698634Y-4230484D02*
X8698634Y-4268579D01*
X8774825Y-4230484D02*
X8774825Y-4268579D01*
X9070063Y-4506674D02*
X9060539Y-4497150D01*
X9060539Y-4497150D02*
X9041491Y-4468579D01*
X9041491Y-4468579D02*
X9031968Y-4449531D01*
X9031968Y-4449531D02*
X9022444Y-4420960D01*
X9022444Y-4420960D02*
X9012920Y-4373341D01*
X9012920Y-4373341D02*
X9012920Y-4335246D01*
X9012920Y-4335246D02*
X9022444Y-4287627D01*
X9022444Y-4287627D02*
X9031968Y-4259055D01*
X9031968Y-4259055D02*
X9041491Y-4240008D01*
X9041491Y-4240008D02*
X9060539Y-4211436D01*
X9060539Y-4211436D02*
X9070063Y-4201912D01*
X9136730Y-4249531D02*
X9146253Y-4240008D01*
X9146253Y-4240008D02*
X9165301Y-4230484D01*
X9165301Y-4230484D02*
X9212920Y-4230484D01*
X9212920Y-4230484D02*
X9231968Y-4240008D01*
X9231968Y-4240008D02*
X9241491Y-4249531D01*
X9241491Y-4249531D02*
X9251015Y-4268579D01*
X9251015Y-4268579D02*
X9251015Y-4287627D01*
X9251015Y-4287627D02*
X9241491Y-4316198D01*
X9241491Y-4316198D02*
X9127206Y-4430484D01*
X9127206Y-4430484D02*
X9251015Y-4430484D01*
X9489111Y-4430484D02*
X9489111Y-4230484D01*
X9574825Y-4430484D02*
X9574825Y-4325722D01*
X9574825Y-4325722D02*
X9565301Y-4306674D01*
X9565301Y-4306674D02*
X9546253Y-4297150D01*
X9546253Y-4297150D02*
X9517682Y-4297150D01*
X9517682Y-4297150D02*
X9498634Y-4306674D01*
X9498634Y-4306674D02*
X9489111Y-4316198D01*
X9698634Y-4430484D02*
X9679587Y-4420960D01*
X9679587Y-4420960D02*
X9670063Y-4411436D01*
X9670063Y-4411436D02*
X9660539Y-4392389D01*
X9660539Y-4392389D02*
X9660539Y-4335246D01*
X9660539Y-4335246D02*
X9670063Y-4316198D01*
X9670063Y-4316198D02*
X9679587Y-4306674D01*
X9679587Y-4306674D02*
X9698634Y-4297150D01*
X9698634Y-4297150D02*
X9727206Y-4297150D01*
X9727206Y-4297150D02*
X9746253Y-4306674D01*
X9746253Y-4306674D02*
X9755777Y-4316198D01*
X9755777Y-4316198D02*
X9765301Y-4335246D01*
X9765301Y-4335246D02*
X9765301Y-4392389D01*
X9765301Y-4392389D02*
X9755777Y-4411436D01*
X9755777Y-4411436D02*
X9746253Y-4420960D01*
X9746253Y-4420960D02*
X9727206Y-4430484D01*
X9727206Y-4430484D02*
X9698634Y-4430484D01*
X9879587Y-4430484D02*
X9860539Y-4420960D01*
X9860539Y-4420960D02*
X9851015Y-4401912D01*
X9851015Y-4401912D02*
X9851015Y-4230484D01*
X10031968Y-4420960D02*
X10012920Y-4430484D01*
X10012920Y-4430484D02*
X9974825Y-4430484D01*
X9974825Y-4430484D02*
X9955777Y-4420960D01*
X9955777Y-4420960D02*
X9946253Y-4401912D01*
X9946253Y-4401912D02*
X9946253Y-4325722D01*
X9946253Y-4325722D02*
X9955777Y-4306674D01*
X9955777Y-4306674D02*
X9974825Y-4297150D01*
X9974825Y-4297150D02*
X10012920Y-4297150D01*
X10012920Y-4297150D02*
X10031968Y-4306674D01*
X10031968Y-4306674D02*
X10041492Y-4325722D01*
X10041492Y-4325722D02*
X10041492Y-4344770D01*
X10041492Y-4344770D02*
X9946253Y-4363817D01*
X10117682Y-4420960D02*
X10136730Y-4430484D01*
X10136730Y-4430484D02*
X10174825Y-4430484D01*
X10174825Y-4430484D02*
X10193873Y-4420960D01*
X10193873Y-4420960D02*
X10203396Y-4401912D01*
X10203396Y-4401912D02*
X10203396Y-4392389D01*
X10203396Y-4392389D02*
X10193873Y-4373341D01*
X10193873Y-4373341D02*
X10174825Y-4363817D01*
X10174825Y-4363817D02*
X10146253Y-4363817D01*
X10146253Y-4363817D02*
X10127206Y-4354293D01*
X10127206Y-4354293D02*
X10117682Y-4335246D01*
X10117682Y-4335246D02*
X10117682Y-4325722D01*
X10117682Y-4325722D02*
X10127206Y-4306674D01*
X10127206Y-4306674D02*
X10146253Y-4297150D01*
X10146253Y-4297150D02*
X10174825Y-4297150D01*
X10174825Y-4297150D02*
X10193873Y-4306674D01*
X10270063Y-4506674D02*
X10279587Y-4497150D01*
X10279587Y-4497150D02*
X10298634Y-4468579D01*
X10298634Y-4468579D02*
X10308158Y-4449531D01*
X10308158Y-4449531D02*
X10317682Y-4420960D01*
X10317682Y-4420960D02*
X10327206Y-4373341D01*
X10327206Y-4373341D02*
X10327206Y-4335246D01*
X10327206Y-4335246D02*
X10317682Y-4287627D01*
X10317682Y-4287627D02*
X10308158Y-4259055D01*
X10308158Y-4259055D02*
X10298634Y-4240008D01*
X10298634Y-4240008D02*
X10279587Y-4211436D01*
X10279587Y-4211436D02*
X10270063Y-4201912D01*
D14*
X5465000Y-4573000D02*
X5465000Y-4633000D01*
X5435000Y-4603000D02*
X5495000Y-4603000D01*
D11*
X5793872Y-4494484D02*
X5812920Y-4494484D01*
X5812920Y-4494484D02*
X5831967Y-4504008D01*
X5831967Y-4504008D02*
X5841491Y-4513531D01*
X5841491Y-4513531D02*
X5851015Y-4532579D01*
X5851015Y-4532579D02*
X5860539Y-4570674D01*
X5860539Y-4570674D02*
X5860539Y-4618293D01*
X5860539Y-4618293D02*
X5851015Y-4656389D01*
X5851015Y-4656389D02*
X5841491Y-4675436D01*
X5841491Y-4675436D02*
X5831967Y-4684960D01*
X5831967Y-4684960D02*
X5812920Y-4694484D01*
X5812920Y-4694484D02*
X5793872Y-4694484D01*
X5793872Y-4694484D02*
X5774824Y-4684960D01*
X5774824Y-4684960D02*
X5765301Y-4675436D01*
X5765301Y-4675436D02*
X5755777Y-4656389D01*
X5755777Y-4656389D02*
X5746253Y-4618293D01*
X5746253Y-4618293D02*
X5746253Y-4570674D01*
X5746253Y-4570674D02*
X5755777Y-4532579D01*
X5755777Y-4532579D02*
X5765301Y-4513531D01*
X5765301Y-4513531D02*
X5774824Y-4504008D01*
X5774824Y-4504008D02*
X5793872Y-4494484D01*
X5946253Y-4675436D02*
X5955777Y-4684960D01*
X5955777Y-4684960D02*
X5946253Y-4694484D01*
X5946253Y-4694484D02*
X5936729Y-4684960D01*
X5936729Y-4684960D02*
X5946253Y-4675436D01*
X5946253Y-4675436D02*
X5946253Y-4694484D01*
X6127205Y-4494484D02*
X6089110Y-4494484D01*
X6089110Y-4494484D02*
X6070062Y-4504008D01*
X6070062Y-4504008D02*
X6060539Y-4513531D01*
X6060539Y-4513531D02*
X6041491Y-4542103D01*
X6041491Y-4542103D02*
X6031967Y-4580198D01*
X6031967Y-4580198D02*
X6031967Y-4656389D01*
X6031967Y-4656389D02*
X6041491Y-4675436D01*
X6041491Y-4675436D02*
X6051015Y-4684960D01*
X6051015Y-4684960D02*
X6070062Y-4694484D01*
X6070062Y-4694484D02*
X6108158Y-4694484D01*
X6108158Y-4694484D02*
X6127205Y-4684960D01*
X6127205Y-4684960D02*
X6136729Y-4675436D01*
X6136729Y-4675436D02*
X6146253Y-4656389D01*
X6146253Y-4656389D02*
X6146253Y-4608770D01*
X6146253Y-4608770D02*
X6136729Y-4589722D01*
X6136729Y-4589722D02*
X6127205Y-4580198D01*
X6127205Y-4580198D02*
X6108158Y-4570674D01*
X6108158Y-4570674D02*
X6070062Y-4570674D01*
X6070062Y-4570674D02*
X6051015Y-4580198D01*
X6051015Y-4580198D02*
X6041491Y-4589722D01*
X6041491Y-4589722D02*
X6031967Y-4608770D01*
X6270062Y-4494484D02*
X6289110Y-4494484D01*
X6289110Y-4494484D02*
X6308158Y-4504008D01*
X6308158Y-4504008D02*
X6317682Y-4513531D01*
X6317682Y-4513531D02*
X6327205Y-4532579D01*
X6327205Y-4532579D02*
X6336729Y-4570674D01*
X6336729Y-4570674D02*
X6336729Y-4618293D01*
X6336729Y-4618293D02*
X6327205Y-4656389D01*
X6327205Y-4656389D02*
X6317682Y-4675436D01*
X6317682Y-4675436D02*
X6308158Y-4684960D01*
X6308158Y-4684960D02*
X6289110Y-4694484D01*
X6289110Y-4694484D02*
X6270062Y-4694484D01*
X6270062Y-4694484D02*
X6251015Y-4684960D01*
X6251015Y-4684960D02*
X6241491Y-4675436D01*
X6241491Y-4675436D02*
X6231967Y-4656389D01*
X6231967Y-4656389D02*
X6222443Y-4618293D01*
X6222443Y-4618293D02*
X6222443Y-4570674D01*
X6222443Y-4570674D02*
X6231967Y-4532579D01*
X6231967Y-4532579D02*
X6241491Y-4513531D01*
X6241491Y-4513531D02*
X6251015Y-4504008D01*
X6251015Y-4504008D02*
X6270062Y-4494484D01*
X6460539Y-4494484D02*
X6479586Y-4494484D01*
X6479586Y-4494484D02*
X6498634Y-4504008D01*
X6498634Y-4504008D02*
X6508158Y-4513531D01*
X6508158Y-4513531D02*
X6517682Y-4532579D01*
X6517682Y-4532579D02*
X6527205Y-4570674D01*
X6527205Y-4570674D02*
X6527205Y-4618293D01*
X6527205Y-4618293D02*
X6517682Y-4656389D01*
X6517682Y-4656389D02*
X6508158Y-4675436D01*
X6508158Y-4675436D02*
X6498634Y-4684960D01*
X6498634Y-4684960D02*
X6479586Y-4694484D01*
X6479586Y-4694484D02*
X6460539Y-4694484D01*
X6460539Y-4694484D02*
X6441491Y-4684960D01*
X6441491Y-4684960D02*
X6431967Y-4675436D01*
X6431967Y-4675436D02*
X6422443Y-4656389D01*
X6422443Y-4656389D02*
X6412920Y-4618293D01*
X6412920Y-4618293D02*
X6412920Y-4570674D01*
X6412920Y-4570674D02*
X6422443Y-4532579D01*
X6422443Y-4532579D02*
X6431967Y-4513531D01*
X6431967Y-4513531D02*
X6441491Y-4504008D01*
X6441491Y-4504008D02*
X6460539Y-4494484D01*
X6612920Y-4694484D02*
X6612920Y-4561150D01*
X6612920Y-4580198D02*
X6622443Y-4570674D01*
X6622443Y-4570674D02*
X6641491Y-4561150D01*
X6641491Y-4561150D02*
X6670063Y-4561150D01*
X6670063Y-4561150D02*
X6689110Y-4570674D01*
X6689110Y-4570674D02*
X6698634Y-4589722D01*
X6698634Y-4589722D02*
X6698634Y-4694484D01*
X6698634Y-4589722D02*
X6708158Y-4570674D01*
X6708158Y-4570674D02*
X6727205Y-4561150D01*
X6727205Y-4561150D02*
X6755777Y-4561150D01*
X6755777Y-4561150D02*
X6774824Y-4570674D01*
X6774824Y-4570674D02*
X6784348Y-4589722D01*
X6784348Y-4589722D02*
X6784348Y-4694484D01*
X6879586Y-4694484D02*
X6879586Y-4561150D01*
X6879586Y-4580198D02*
X6889110Y-4570674D01*
X6889110Y-4570674D02*
X6908158Y-4561150D01*
X6908158Y-4561150D02*
X6936729Y-4561150D01*
X6936729Y-4561150D02*
X6955777Y-4570674D01*
X6955777Y-4570674D02*
X6965301Y-4589722D01*
X6965301Y-4589722D02*
X6965301Y-4694484D01*
X6965301Y-4589722D02*
X6974824Y-4570674D01*
X6974824Y-4570674D02*
X6993872Y-4561150D01*
X6993872Y-4561150D02*
X7022443Y-4561150D01*
X7022443Y-4561150D02*
X7041491Y-4570674D01*
X7041491Y-4570674D02*
X7051015Y-4589722D01*
X7051015Y-4589722D02*
X7051015Y-4694484D01*
X7441491Y-4484960D02*
X7270063Y-4742103D01*
X7698634Y-4494484D02*
X7717682Y-4494484D01*
X7717682Y-4494484D02*
X7736729Y-4504008D01*
X7736729Y-4504008D02*
X7746253Y-4513531D01*
X7746253Y-4513531D02*
X7755777Y-4532579D01*
X7755777Y-4532579D02*
X7765301Y-4570674D01*
X7765301Y-4570674D02*
X7765301Y-4618293D01*
X7765301Y-4618293D02*
X7755777Y-4656389D01*
X7755777Y-4656389D02*
X7746253Y-4675436D01*
X7746253Y-4675436D02*
X7736729Y-4684960D01*
X7736729Y-4684960D02*
X7717682Y-4694484D01*
X7717682Y-4694484D02*
X7698634Y-4694484D01*
X7698634Y-4694484D02*
X7679586Y-4684960D01*
X7679586Y-4684960D02*
X7670063Y-4675436D01*
X7670063Y-4675436D02*
X7660539Y-4656389D01*
X7660539Y-4656389D02*
X7651015Y-4618293D01*
X7651015Y-4618293D02*
X7651015Y-4570674D01*
X7651015Y-4570674D02*
X7660539Y-4532579D01*
X7660539Y-4532579D02*
X7670063Y-4513531D01*
X7670063Y-4513531D02*
X7679586Y-4504008D01*
X7679586Y-4504008D02*
X7698634Y-4494484D01*
X7851015Y-4675436D02*
X7860539Y-4684960D01*
X7860539Y-4684960D02*
X7851015Y-4694484D01*
X7851015Y-4694484D02*
X7841491Y-4684960D01*
X7841491Y-4684960D02*
X7851015Y-4675436D01*
X7851015Y-4675436D02*
X7851015Y-4694484D01*
X7984348Y-4494484D02*
X8003396Y-4494484D01*
X8003396Y-4494484D02*
X8022444Y-4504008D01*
X8022444Y-4504008D02*
X8031967Y-4513531D01*
X8031967Y-4513531D02*
X8041491Y-4532579D01*
X8041491Y-4532579D02*
X8051015Y-4570674D01*
X8051015Y-4570674D02*
X8051015Y-4618293D01*
X8051015Y-4618293D02*
X8041491Y-4656389D01*
X8041491Y-4656389D02*
X8031967Y-4675436D01*
X8031967Y-4675436D02*
X8022444Y-4684960D01*
X8022444Y-4684960D02*
X8003396Y-4694484D01*
X8003396Y-4694484D02*
X7984348Y-4694484D01*
X7984348Y-4694484D02*
X7965301Y-4684960D01*
X7965301Y-4684960D02*
X7955777Y-4675436D01*
X7955777Y-4675436D02*
X7946253Y-4656389D01*
X7946253Y-4656389D02*
X7936729Y-4618293D01*
X7936729Y-4618293D02*
X7936729Y-4570674D01*
X7936729Y-4570674D02*
X7946253Y-4532579D01*
X7946253Y-4532579D02*
X7955777Y-4513531D01*
X7955777Y-4513531D02*
X7965301Y-4504008D01*
X7965301Y-4504008D02*
X7984348Y-4494484D01*
X8127206Y-4513531D02*
X8136729Y-4504008D01*
X8136729Y-4504008D02*
X8155777Y-4494484D01*
X8155777Y-4494484D02*
X8203396Y-4494484D01*
X8203396Y-4494484D02*
X8222444Y-4504008D01*
X8222444Y-4504008D02*
X8231967Y-4513531D01*
X8231967Y-4513531D02*
X8241491Y-4532579D01*
X8241491Y-4532579D02*
X8241491Y-4551627D01*
X8241491Y-4551627D02*
X8231967Y-4580198D01*
X8231967Y-4580198D02*
X8117682Y-4694484D01*
X8117682Y-4694484D02*
X8241491Y-4694484D01*
X8308158Y-4494484D02*
X8431968Y-4494484D01*
X8431968Y-4494484D02*
X8365301Y-4570674D01*
X8365301Y-4570674D02*
X8393872Y-4570674D01*
X8393872Y-4570674D02*
X8412920Y-4580198D01*
X8412920Y-4580198D02*
X8422444Y-4589722D01*
X8422444Y-4589722D02*
X8431968Y-4608770D01*
X8431968Y-4608770D02*
X8431968Y-4656389D01*
X8431968Y-4656389D02*
X8422444Y-4675436D01*
X8422444Y-4675436D02*
X8412920Y-4684960D01*
X8412920Y-4684960D02*
X8393872Y-4694484D01*
X8393872Y-4694484D02*
X8336729Y-4694484D01*
X8336729Y-4694484D02*
X8317682Y-4684960D01*
X8317682Y-4684960D02*
X8308158Y-4675436D01*
X8603396Y-4494484D02*
X8565301Y-4494484D01*
X8565301Y-4494484D02*
X8546253Y-4504008D01*
X8546253Y-4504008D02*
X8536729Y-4513531D01*
X8536729Y-4513531D02*
X8517682Y-4542103D01*
X8517682Y-4542103D02*
X8508158Y-4580198D01*
X8508158Y-4580198D02*
X8508158Y-4656389D01*
X8508158Y-4656389D02*
X8517682Y-4675436D01*
X8517682Y-4675436D02*
X8527206Y-4684960D01*
X8527206Y-4684960D02*
X8546253Y-4694484D01*
X8546253Y-4694484D02*
X8584349Y-4694484D01*
X8584349Y-4694484D02*
X8603396Y-4684960D01*
X8603396Y-4684960D02*
X8612920Y-4675436D01*
X8612920Y-4675436D02*
X8622444Y-4656389D01*
X8622444Y-4656389D02*
X8622444Y-4608770D01*
X8622444Y-4608770D02*
X8612920Y-4589722D01*
X8612920Y-4589722D02*
X8603396Y-4580198D01*
X8603396Y-4580198D02*
X8584349Y-4570674D01*
X8584349Y-4570674D02*
X8546253Y-4570674D01*
X8546253Y-4570674D02*
X8527206Y-4580198D01*
X8527206Y-4580198D02*
X8517682Y-4589722D01*
X8517682Y-4589722D02*
X8508158Y-4608770D01*
X8698634Y-4494484D02*
X8698634Y-4532579D01*
X8774825Y-4494484D02*
X8774825Y-4532579D01*
X9070063Y-4770674D02*
X9060539Y-4761150D01*
X9060539Y-4761150D02*
X9041491Y-4732579D01*
X9041491Y-4732579D02*
X9031968Y-4713531D01*
X9031968Y-4713531D02*
X9022444Y-4684960D01*
X9022444Y-4684960D02*
X9012920Y-4637341D01*
X9012920Y-4637341D02*
X9012920Y-4599246D01*
X9012920Y-4599246D02*
X9022444Y-4551627D01*
X9022444Y-4551627D02*
X9031968Y-4523055D01*
X9031968Y-4523055D02*
X9041491Y-4504008D01*
X9041491Y-4504008D02*
X9060539Y-4475436D01*
X9060539Y-4475436D02*
X9070063Y-4465912D01*
X9127206Y-4494484D02*
X9260539Y-4494484D01*
X9260539Y-4494484D02*
X9174825Y-4694484D01*
X9489111Y-4694484D02*
X9489111Y-4494484D01*
X9574825Y-4694484D02*
X9574825Y-4589722D01*
X9574825Y-4589722D02*
X9565301Y-4570674D01*
X9565301Y-4570674D02*
X9546253Y-4561150D01*
X9546253Y-4561150D02*
X9517682Y-4561150D01*
X9517682Y-4561150D02*
X9498634Y-4570674D01*
X9498634Y-4570674D02*
X9489111Y-4580198D01*
X9698634Y-4694484D02*
X9679587Y-4684960D01*
X9679587Y-4684960D02*
X9670063Y-4675436D01*
X9670063Y-4675436D02*
X9660539Y-4656389D01*
X9660539Y-4656389D02*
X9660539Y-4599246D01*
X9660539Y-4599246D02*
X9670063Y-4580198D01*
X9670063Y-4580198D02*
X9679587Y-4570674D01*
X9679587Y-4570674D02*
X9698634Y-4561150D01*
X9698634Y-4561150D02*
X9727206Y-4561150D01*
X9727206Y-4561150D02*
X9746253Y-4570674D01*
X9746253Y-4570674D02*
X9755777Y-4580198D01*
X9755777Y-4580198D02*
X9765301Y-4599246D01*
X9765301Y-4599246D02*
X9765301Y-4656389D01*
X9765301Y-4656389D02*
X9755777Y-4675436D01*
X9755777Y-4675436D02*
X9746253Y-4684960D01*
X9746253Y-4684960D02*
X9727206Y-4694484D01*
X9727206Y-4694484D02*
X9698634Y-4694484D01*
X9879587Y-4694484D02*
X9860539Y-4684960D01*
X9860539Y-4684960D02*
X9851015Y-4665912D01*
X9851015Y-4665912D02*
X9851015Y-4494484D01*
X10031968Y-4684960D02*
X10012920Y-4694484D01*
X10012920Y-4694484D02*
X9974825Y-4694484D01*
X9974825Y-4694484D02*
X9955777Y-4684960D01*
X9955777Y-4684960D02*
X9946253Y-4665912D01*
X9946253Y-4665912D02*
X9946253Y-4589722D01*
X9946253Y-4589722D02*
X9955777Y-4570674D01*
X9955777Y-4570674D02*
X9974825Y-4561150D01*
X9974825Y-4561150D02*
X10012920Y-4561150D01*
X10012920Y-4561150D02*
X10031968Y-4570674D01*
X10031968Y-4570674D02*
X10041492Y-4589722D01*
X10041492Y-4589722D02*
X10041492Y-4608770D01*
X10041492Y-4608770D02*
X9946253Y-4627817D01*
X10117682Y-4684960D02*
X10136730Y-4694484D01*
X10136730Y-4694484D02*
X10174825Y-4694484D01*
X10174825Y-4694484D02*
X10193873Y-4684960D01*
X10193873Y-4684960D02*
X10203396Y-4665912D01*
X10203396Y-4665912D02*
X10203396Y-4656389D01*
X10203396Y-4656389D02*
X10193873Y-4637341D01*
X10193873Y-4637341D02*
X10174825Y-4627817D01*
X10174825Y-4627817D02*
X10146253Y-4627817D01*
X10146253Y-4627817D02*
X10127206Y-4618293D01*
X10127206Y-4618293D02*
X10117682Y-4599246D01*
X10117682Y-4599246D02*
X10117682Y-4589722D01*
X10117682Y-4589722D02*
X10127206Y-4570674D01*
X10127206Y-4570674D02*
X10146253Y-4561150D01*
X10146253Y-4561150D02*
X10174825Y-4561150D01*
X10174825Y-4561150D02*
X10193873Y-4570674D01*
X10270063Y-4770674D02*
X10279587Y-4761150D01*
X10279587Y-4761150D02*
X10298634Y-4732579D01*
X10298634Y-4732579D02*
X10308158Y-4713531D01*
X10308158Y-4713531D02*
X10317682Y-4684960D01*
X10317682Y-4684960D02*
X10327206Y-4637341D01*
X10327206Y-4637341D02*
X10327206Y-4599246D01*
X10327206Y-4599246D02*
X10317682Y-4551627D01*
X10317682Y-4551627D02*
X10308158Y-4523055D01*
X10308158Y-4523055D02*
X10298634Y-4504008D01*
X10298634Y-4504008D02*
X10279587Y-4475436D01*
X10279587Y-4475436D02*
X10270063Y-4465912D01*
D15*
X5477518Y-4909208D02*
X5477518Y-4824792D01*
X5393102Y-4824792D01*
X5393102Y-4909208D01*
X5477518Y-4909208D01*
D11*
X5860539Y-4958484D02*
X5746253Y-4958484D01*
X5803396Y-4958484D02*
X5803396Y-4758484D01*
X5803396Y-4758484D02*
X5784348Y-4787055D01*
X5784348Y-4787055D02*
X5765301Y-4806103D01*
X5765301Y-4806103D02*
X5746253Y-4815627D01*
X5946253Y-4939436D02*
X5955777Y-4948960D01*
X5955777Y-4948960D02*
X5946253Y-4958484D01*
X5946253Y-4958484D02*
X5936729Y-4948960D01*
X5936729Y-4948960D02*
X5946253Y-4939436D01*
X5946253Y-4939436D02*
X5946253Y-4958484D01*
X6146253Y-4958484D02*
X6031967Y-4958484D01*
X6089110Y-4958484D02*
X6089110Y-4758484D01*
X6089110Y-4758484D02*
X6070062Y-4787055D01*
X6070062Y-4787055D02*
X6051015Y-4806103D01*
X6051015Y-4806103D02*
X6031967Y-4815627D01*
X6241491Y-4958484D02*
X6279586Y-4958484D01*
X6279586Y-4958484D02*
X6298634Y-4948960D01*
X6298634Y-4948960D02*
X6308158Y-4939436D01*
X6308158Y-4939436D02*
X6327205Y-4910865D01*
X6327205Y-4910865D02*
X6336729Y-4872770D01*
X6336729Y-4872770D02*
X6336729Y-4796579D01*
X6336729Y-4796579D02*
X6327205Y-4777531D01*
X6327205Y-4777531D02*
X6317682Y-4768008D01*
X6317682Y-4768008D02*
X6298634Y-4758484D01*
X6298634Y-4758484D02*
X6260539Y-4758484D01*
X6260539Y-4758484D02*
X6241491Y-4768008D01*
X6241491Y-4768008D02*
X6231967Y-4777531D01*
X6231967Y-4777531D02*
X6222443Y-4796579D01*
X6222443Y-4796579D02*
X6222443Y-4844198D01*
X6222443Y-4844198D02*
X6231967Y-4863246D01*
X6231967Y-4863246D02*
X6241491Y-4872770D01*
X6241491Y-4872770D02*
X6260539Y-4882293D01*
X6260539Y-4882293D02*
X6298634Y-4882293D01*
X6298634Y-4882293D02*
X6317682Y-4872770D01*
X6317682Y-4872770D02*
X6327205Y-4863246D01*
X6327205Y-4863246D02*
X6336729Y-4844198D01*
X6508158Y-4825150D02*
X6508158Y-4958484D01*
X6460539Y-4748960D02*
X6412920Y-4891817D01*
X6412920Y-4891817D02*
X6536729Y-4891817D01*
X6612920Y-4958484D02*
X6612920Y-4825150D01*
X6612920Y-4844198D02*
X6622443Y-4834674D01*
X6622443Y-4834674D02*
X6641491Y-4825150D01*
X6641491Y-4825150D02*
X6670063Y-4825150D01*
X6670063Y-4825150D02*
X6689110Y-4834674D01*
X6689110Y-4834674D02*
X6698634Y-4853722D01*
X6698634Y-4853722D02*
X6698634Y-4958484D01*
X6698634Y-4853722D02*
X6708158Y-4834674D01*
X6708158Y-4834674D02*
X6727205Y-4825150D01*
X6727205Y-4825150D02*
X6755777Y-4825150D01*
X6755777Y-4825150D02*
X6774824Y-4834674D01*
X6774824Y-4834674D02*
X6784348Y-4853722D01*
X6784348Y-4853722D02*
X6784348Y-4958484D01*
X6879586Y-4958484D02*
X6879586Y-4825150D01*
X6879586Y-4844198D02*
X6889110Y-4834674D01*
X6889110Y-4834674D02*
X6908158Y-4825150D01*
X6908158Y-4825150D02*
X6936729Y-4825150D01*
X6936729Y-4825150D02*
X6955777Y-4834674D01*
X6955777Y-4834674D02*
X6965301Y-4853722D01*
X6965301Y-4853722D02*
X6965301Y-4958484D01*
X6965301Y-4853722D02*
X6974824Y-4834674D01*
X6974824Y-4834674D02*
X6993872Y-4825150D01*
X6993872Y-4825150D02*
X7022443Y-4825150D01*
X7022443Y-4825150D02*
X7041491Y-4834674D01*
X7041491Y-4834674D02*
X7051015Y-4853722D01*
X7051015Y-4853722D02*
X7051015Y-4958484D01*
X7441491Y-4748960D02*
X7270063Y-5006103D01*
X7698634Y-4758484D02*
X7717682Y-4758484D01*
X7717682Y-4758484D02*
X7736729Y-4768008D01*
X7736729Y-4768008D02*
X7746253Y-4777531D01*
X7746253Y-4777531D02*
X7755777Y-4796579D01*
X7755777Y-4796579D02*
X7765301Y-4834674D01*
X7765301Y-4834674D02*
X7765301Y-4882293D01*
X7765301Y-4882293D02*
X7755777Y-4920389D01*
X7755777Y-4920389D02*
X7746253Y-4939436D01*
X7746253Y-4939436D02*
X7736729Y-4948960D01*
X7736729Y-4948960D02*
X7717682Y-4958484D01*
X7717682Y-4958484D02*
X7698634Y-4958484D01*
X7698634Y-4958484D02*
X7679586Y-4948960D01*
X7679586Y-4948960D02*
X7670063Y-4939436D01*
X7670063Y-4939436D02*
X7660539Y-4920389D01*
X7660539Y-4920389D02*
X7651015Y-4882293D01*
X7651015Y-4882293D02*
X7651015Y-4834674D01*
X7651015Y-4834674D02*
X7660539Y-4796579D01*
X7660539Y-4796579D02*
X7670063Y-4777531D01*
X7670063Y-4777531D02*
X7679586Y-4768008D01*
X7679586Y-4768008D02*
X7698634Y-4758484D01*
X7851015Y-4939436D02*
X7860539Y-4948960D01*
X7860539Y-4948960D02*
X7851015Y-4958484D01*
X7851015Y-4958484D02*
X7841491Y-4948960D01*
X7841491Y-4948960D02*
X7851015Y-4939436D01*
X7851015Y-4939436D02*
X7851015Y-4958484D01*
X7984348Y-4758484D02*
X8003396Y-4758484D01*
X8003396Y-4758484D02*
X8022444Y-4768008D01*
X8022444Y-4768008D02*
X8031967Y-4777531D01*
X8031967Y-4777531D02*
X8041491Y-4796579D01*
X8041491Y-4796579D02*
X8051015Y-4834674D01*
X8051015Y-4834674D02*
X8051015Y-4882293D01*
X8051015Y-4882293D02*
X8041491Y-4920389D01*
X8041491Y-4920389D02*
X8031967Y-4939436D01*
X8031967Y-4939436D02*
X8022444Y-4948960D01*
X8022444Y-4948960D02*
X8003396Y-4958484D01*
X8003396Y-4958484D02*
X7984348Y-4958484D01*
X7984348Y-4958484D02*
X7965301Y-4948960D01*
X7965301Y-4948960D02*
X7955777Y-4939436D01*
X7955777Y-4939436D02*
X7946253Y-4920389D01*
X7946253Y-4920389D02*
X7936729Y-4882293D01*
X7936729Y-4882293D02*
X7936729Y-4834674D01*
X7936729Y-4834674D02*
X7946253Y-4796579D01*
X7946253Y-4796579D02*
X7955777Y-4777531D01*
X7955777Y-4777531D02*
X7965301Y-4768008D01*
X7965301Y-4768008D02*
X7984348Y-4758484D01*
X8222444Y-4825150D02*
X8222444Y-4958484D01*
X8174825Y-4748960D02*
X8127206Y-4891817D01*
X8127206Y-4891817D02*
X8251015Y-4891817D01*
X8308158Y-4758484D02*
X8441491Y-4758484D01*
X8441491Y-4758484D02*
X8355777Y-4958484D01*
X8555777Y-4758484D02*
X8574825Y-4758484D01*
X8574825Y-4758484D02*
X8593872Y-4768008D01*
X8593872Y-4768008D02*
X8603396Y-4777531D01*
X8603396Y-4777531D02*
X8612920Y-4796579D01*
X8612920Y-4796579D02*
X8622444Y-4834674D01*
X8622444Y-4834674D02*
X8622444Y-4882293D01*
X8622444Y-4882293D02*
X8612920Y-4920389D01*
X8612920Y-4920389D02*
X8603396Y-4939436D01*
X8603396Y-4939436D02*
X8593872Y-4948960D01*
X8593872Y-4948960D02*
X8574825Y-4958484D01*
X8574825Y-4958484D02*
X8555777Y-4958484D01*
X8555777Y-4958484D02*
X8536729Y-4948960D01*
X8536729Y-4948960D02*
X8527206Y-4939436D01*
X8527206Y-4939436D02*
X8517682Y-4920389D01*
X8517682Y-4920389D02*
X8508158Y-4882293D01*
X8508158Y-4882293D02*
X8508158Y-4834674D01*
X8508158Y-4834674D02*
X8517682Y-4796579D01*
X8517682Y-4796579D02*
X8527206Y-4777531D01*
X8527206Y-4777531D02*
X8536729Y-4768008D01*
X8536729Y-4768008D02*
X8555777Y-4758484D01*
X8698634Y-4758484D02*
X8698634Y-4796579D01*
X8774825Y-4758484D02*
X8774825Y-4796579D01*
X9070063Y-5034674D02*
X9060539Y-5025150D01*
X9060539Y-5025150D02*
X9041491Y-4996579D01*
X9041491Y-4996579D02*
X9031968Y-4977531D01*
X9031968Y-4977531D02*
X9022444Y-4948960D01*
X9022444Y-4948960D02*
X9012920Y-4901341D01*
X9012920Y-4901341D02*
X9012920Y-4863246D01*
X9012920Y-4863246D02*
X9022444Y-4815627D01*
X9022444Y-4815627D02*
X9031968Y-4787055D01*
X9031968Y-4787055D02*
X9041491Y-4768008D01*
X9041491Y-4768008D02*
X9060539Y-4739436D01*
X9060539Y-4739436D02*
X9070063Y-4729912D01*
X9231968Y-4825150D02*
X9231968Y-4958484D01*
X9184349Y-4748960D02*
X9136730Y-4891817D01*
X9136730Y-4891817D02*
X9260539Y-4891817D01*
X9489111Y-4958484D02*
X9489111Y-4758484D01*
X9574825Y-4958484D02*
X9574825Y-4853722D01*
X9574825Y-4853722D02*
X9565301Y-4834674D01*
X9565301Y-4834674D02*
X9546253Y-4825150D01*
X9546253Y-4825150D02*
X9517682Y-4825150D01*
X9517682Y-4825150D02*
X9498634Y-4834674D01*
X9498634Y-4834674D02*
X9489111Y-4844198D01*
X9698634Y-4958484D02*
X9679587Y-4948960D01*
X9679587Y-4948960D02*
X9670063Y-4939436D01*
X9670063Y-4939436D02*
X9660539Y-4920389D01*
X9660539Y-4920389D02*
X9660539Y-4863246D01*
X9660539Y-4863246D02*
X9670063Y-4844198D01*
X9670063Y-4844198D02*
X9679587Y-4834674D01*
X9679587Y-4834674D02*
X9698634Y-4825150D01*
X9698634Y-4825150D02*
X9727206Y-4825150D01*
X9727206Y-4825150D02*
X9746253Y-4834674D01*
X9746253Y-4834674D02*
X9755777Y-4844198D01*
X9755777Y-4844198D02*
X9765301Y-4863246D01*
X9765301Y-4863246D02*
X9765301Y-4920389D01*
X9765301Y-4920389D02*
X9755777Y-4939436D01*
X9755777Y-4939436D02*
X9746253Y-4948960D01*
X9746253Y-4948960D02*
X9727206Y-4958484D01*
X9727206Y-4958484D02*
X9698634Y-4958484D01*
X9879587Y-4958484D02*
X9860539Y-4948960D01*
X9860539Y-4948960D02*
X9851015Y-4929912D01*
X9851015Y-4929912D02*
X9851015Y-4758484D01*
X10031968Y-4948960D02*
X10012920Y-4958484D01*
X10012920Y-4958484D02*
X9974825Y-4958484D01*
X9974825Y-4958484D02*
X9955777Y-4948960D01*
X9955777Y-4948960D02*
X9946253Y-4929912D01*
X9946253Y-4929912D02*
X9946253Y-4853722D01*
X9946253Y-4853722D02*
X9955777Y-4834674D01*
X9955777Y-4834674D02*
X9974825Y-4825150D01*
X9974825Y-4825150D02*
X10012920Y-4825150D01*
X10012920Y-4825150D02*
X10031968Y-4834674D01*
X10031968Y-4834674D02*
X10041492Y-4853722D01*
X10041492Y-4853722D02*
X10041492Y-4872770D01*
X10041492Y-4872770D02*
X9946253Y-4891817D01*
X10117682Y-4948960D02*
X10136730Y-4958484D01*
X10136730Y-4958484D02*
X10174825Y-4958484D01*
X10174825Y-4958484D02*
X10193873Y-4948960D01*
X10193873Y-4948960D02*
X10203396Y-4929912D01*
X10203396Y-4929912D02*
X10203396Y-4920389D01*
X10203396Y-4920389D02*
X10193873Y-4901341D01*
X10193873Y-4901341D02*
X10174825Y-4891817D01*
X10174825Y-4891817D02*
X10146253Y-4891817D01*
X10146253Y-4891817D02*
X10127206Y-4882293D01*
X10127206Y-4882293D02*
X10117682Y-4863246D01*
X10117682Y-4863246D02*
X10117682Y-4853722D01*
X10117682Y-4853722D02*
X10127206Y-4834674D01*
X10127206Y-4834674D02*
X10146253Y-4825150D01*
X10146253Y-4825150D02*
X10174825Y-4825150D01*
X10174825Y-4825150D02*
X10193873Y-4834674D01*
X10270063Y-5034674D02*
X10279587Y-5025150D01*
X10279587Y-5025150D02*
X10298634Y-4996579D01*
X10298634Y-4996579D02*
X10308158Y-4977531D01*
X10308158Y-4977531D02*
X10317682Y-4948960D01*
X10317682Y-4948960D02*
X10327206Y-4901341D01*
X10327206Y-4901341D02*
X10327206Y-4863246D01*
X10327206Y-4863246D02*
X10317682Y-4815627D01*
X10317682Y-4815627D02*
X10308158Y-4787055D01*
X10308158Y-4787055D02*
X10298634Y-4768008D01*
X10298634Y-4768008D02*
X10279587Y-4739436D01*
X10279587Y-4739436D02*
X10270063Y-4729912D01*
M02*
