G04 #@! TF.GenerationSoftware,KiCad,Pcbnew,7.0.5-0*
G04 #@! TF.CreationDate,2023-12-12T08:18:18-05:00*
G04 #@! TF.ProjectId,12v5VBuck,31327635-5642-4756-936b-2e6b69636164,rev?*
G04 #@! TF.SameCoordinates,Original*
G04 #@! TF.FileFunction,Copper,L1,Top*
G04 #@! TF.FilePolarity,Positive*
%FSLAX46Y46*%
G04 Gerber Fmt 4.6, Leading zero omitted, Abs format (unit mm)*
G04 Created by KiCad (PCBNEW 7.0.5-0) date 2023-12-12 08:18:18*
%MOMM*%
%LPD*%
G01*
G04 APERTURE LIST*
G04 Aperture macros list*
%AMRoundRect*
0 Rectangle with rounded corners*
0 $1 Rounding radius*
0 $2 $3 $4 $5 $6 $7 $8 $9 X,Y pos of 4 corners*
0 Add a 4 corners polygon primitive as box body*
4,1,4,$2,$3,$4,$5,$6,$7,$8,$9,$2,$3,0*
0 Add four circle primitives for the rounded corners*
1,1,$1+$1,$2,$3*
1,1,$1+$1,$4,$5*
1,1,$1+$1,$6,$7*
1,1,$1+$1,$8,$9*
0 Add four rect primitives between the rounded corners*
20,1,$1+$1,$2,$3,$4,$5,0*
20,1,$1+$1,$4,$5,$6,$7,0*
20,1,$1+$1,$6,$7,$8,$9,0*
20,1,$1+$1,$8,$9,$2,$3,0*%
G04 Aperture macros list end*
G04 #@! TA.AperFunction,ComponentPad*
%ADD10C,1.701800*%
G04 #@! TD*
G04 #@! TA.AperFunction,SMDPad,CuDef*
%ADD11R,1.250000X0.600000*%
G04 #@! TD*
G04 #@! TA.AperFunction,SMDPad,CuDef*
%ADD12RoundRect,0.250000X-0.262500X-0.450000X0.262500X-0.450000X0.262500X0.450000X-0.262500X0.450000X0*%
G04 #@! TD*
G04 #@! TA.AperFunction,SMDPad,CuDef*
%ADD13RoundRect,0.235000X0.940000X1.465000X-0.940000X1.465000X-0.940000X-1.465000X0.940000X-1.465000X0*%
G04 #@! TD*
G04 #@! TA.AperFunction,SMDPad,CuDef*
%ADD14RoundRect,0.250000X0.250000X0.475000X-0.250000X0.475000X-0.250000X-0.475000X0.250000X-0.475000X0*%
G04 #@! TD*
G04 #@! TA.AperFunction,ViaPad*
%ADD15C,1.200000*%
G04 #@! TD*
G04 #@! TA.AperFunction,ViaPad*
%ADD16C,0.600000*%
G04 #@! TD*
G04 #@! TA.AperFunction,ViaPad*
%ADD17C,1.000000*%
G04 #@! TD*
G04 #@! TA.AperFunction,Conductor*
%ADD18C,1.200000*%
G04 #@! TD*
G04 #@! TA.AperFunction,Conductor*
%ADD19C,0.600000*%
G04 #@! TD*
G04 #@! TA.AperFunction,Conductor*
%ADD20C,0.800000*%
G04 #@! TD*
G04 #@! TA.AperFunction,Conductor*
%ADD21C,0.500000*%
G04 #@! TD*
G04 APERTURE END LIST*
D10*
X60475001Y-30775000D03*
X56974998Y-30775000D03*
D11*
X65240000Y-20810000D03*
X65240000Y-21760000D03*
X65240000Y-22710000D03*
X67740000Y-22710000D03*
X67740000Y-21760000D03*
X67740000Y-20810000D03*
D12*
X65248774Y-24675000D03*
X67073774Y-24675000D03*
D13*
X62930000Y-21765000D03*
X56880000Y-21765000D03*
D14*
X67725000Y-18675000D03*
X65825000Y-18675000D03*
D10*
X68235001Y-30765000D03*
X64734998Y-30765000D03*
D15*
X63200000Y-24700000D03*
D16*
X59600000Y-23600000D03*
D17*
X67800000Y-26400000D03*
D16*
X62500000Y-33100000D03*
X61700000Y-24500000D03*
X63300000Y-27900000D03*
X61300000Y-33500000D03*
X69500000Y-29400000D03*
X55500000Y-19200000D03*
D17*
X69000000Y-18100000D03*
D16*
X59800000Y-20300000D03*
X55500000Y-25000000D03*
D15*
X69000000Y-33100000D03*
D16*
X61400000Y-28300000D03*
X68800000Y-19700000D03*
X59800000Y-33400000D03*
X57000000Y-33400000D03*
X60400000Y-24500000D03*
X60600000Y-19500000D03*
X62500000Y-30600000D03*
D15*
X60200000Y-26300000D03*
D16*
X65240000Y-20040000D03*
D15*
X60200000Y-28400000D03*
D16*
X55462846Y-28397817D03*
X58500000Y-24600000D03*
X61700000Y-26200000D03*
D15*
X68000000Y-28500000D03*
D16*
X69600000Y-19300000D03*
X55600000Y-32100000D03*
X58500000Y-32500000D03*
D15*
X69000000Y-27400000D03*
D16*
X69100000Y-20800000D03*
X69810307Y-23110308D03*
X69000000Y-21800000D03*
D15*
X56900000Y-24700000D03*
D16*
X56900000Y-19500000D03*
D18*
X65248774Y-24675000D02*
X65248774Y-22960000D01*
X65248774Y-22960000D02*
X65240000Y-22960000D01*
X63225000Y-24675000D02*
X63200000Y-24700000D01*
X65248774Y-24675000D02*
X63225000Y-24675000D01*
D19*
X65240000Y-20040000D02*
X65240000Y-20810000D01*
X67740000Y-20810000D02*
X67740000Y-18690000D01*
X67740000Y-18690000D02*
X67725000Y-18675000D01*
X62930000Y-19370000D02*
X62930000Y-21765000D01*
D20*
X62935000Y-21760000D02*
X62930000Y-21765000D01*
D19*
X63625000Y-18675000D02*
X62930000Y-19370000D01*
D20*
X65240000Y-21760000D02*
X62935000Y-21760000D01*
D19*
X63625000Y-18675000D02*
X65825000Y-18675000D01*
D21*
X69150661Y-22710000D02*
X67740000Y-22710000D01*
X69750000Y-21050000D02*
X69750000Y-22110661D01*
X69500000Y-20800000D02*
X69750000Y-21050000D01*
X69750000Y-22110661D02*
X69150661Y-22710000D01*
X69100000Y-20800000D02*
X69500000Y-20800000D01*
X69125000Y-24675000D02*
X69810307Y-23989693D01*
X67073774Y-24675000D02*
X69125000Y-24675000D01*
X67740000Y-21760000D02*
X68960000Y-21760000D01*
X69810307Y-23989693D02*
X69810307Y-23110308D01*
D19*
X56880000Y-19520000D02*
X56900000Y-19500000D01*
D18*
X56880000Y-24680000D02*
X56900000Y-24700000D01*
X56880000Y-21765000D02*
X56880000Y-24680000D01*
D19*
X56880000Y-21765000D02*
X56880000Y-19520000D01*
M02*
