%TF.GenerationSoftware,KiCad,Pcbnew,7.0.5-0*%
%TF.CreationDate,2023-12-12T08:18:19-05:00*%
%TF.ProjectId,12v5VBuck,31327635-5642-4756-936b-2e6b69636164,rev?*%
%TF.SameCoordinates,Original*%
%TF.FileFunction,Drillmap*%
%TF.FilePolarity,Positive*%
%FSLAX45Y45*%
G04 Gerber Fmt 4.5, Leading zero omitted, Abs format (unit mm)*
G04 Created by KiCad (PCBNEW 7.0.5-0) date 2023-12-12 08:18:19*
%MOMM*%
%LPD*%
G01*
G04 APERTURE LIST*
%ADD10C,0.100000*%
%ADD11C,0.200000*%
G04 APERTURE END LIST*
D10*
X5500000Y-1700000D02*
X7040000Y-1700000D01*
X7040000Y-3430000D01*
X5500000Y-3430000D01*
X5500000Y-1700000D01*
D11*
X5755777Y-3746484D02*
X5755777Y-3546484D01*
X5755777Y-3546484D02*
X5803396Y-3546484D01*
X5803396Y-3546484D02*
X5831967Y-3556008D01*
X5831967Y-3556008D02*
X5851015Y-3575055D01*
X5851015Y-3575055D02*
X5860539Y-3594103D01*
X5860539Y-3594103D02*
X5870062Y-3632198D01*
X5870062Y-3632198D02*
X5870062Y-3660769D01*
X5870062Y-3660769D02*
X5860539Y-3698865D01*
X5860539Y-3698865D02*
X5851015Y-3717912D01*
X5851015Y-3717912D02*
X5831967Y-3736960D01*
X5831967Y-3736960D02*
X5803396Y-3746484D01*
X5803396Y-3746484D02*
X5755777Y-3746484D01*
X5955777Y-3746484D02*
X5955777Y-3613150D01*
X5955777Y-3651246D02*
X5965301Y-3632198D01*
X5965301Y-3632198D02*
X5974824Y-3622674D01*
X5974824Y-3622674D02*
X5993872Y-3613150D01*
X5993872Y-3613150D02*
X6012920Y-3613150D01*
X6079586Y-3746484D02*
X6079586Y-3613150D01*
X6079586Y-3546484D02*
X6070062Y-3556008D01*
X6070062Y-3556008D02*
X6079586Y-3565531D01*
X6079586Y-3565531D02*
X6089110Y-3556008D01*
X6089110Y-3556008D02*
X6079586Y-3546484D01*
X6079586Y-3546484D02*
X6079586Y-3565531D01*
X6203396Y-3746484D02*
X6184348Y-3736960D01*
X6184348Y-3736960D02*
X6174824Y-3717912D01*
X6174824Y-3717912D02*
X6174824Y-3546484D01*
X6308158Y-3746484D02*
X6289110Y-3736960D01*
X6289110Y-3736960D02*
X6279586Y-3717912D01*
X6279586Y-3717912D02*
X6279586Y-3546484D01*
X6536729Y-3746484D02*
X6536729Y-3546484D01*
X6536729Y-3546484D02*
X6603396Y-3689341D01*
X6603396Y-3689341D02*
X6670062Y-3546484D01*
X6670062Y-3546484D02*
X6670062Y-3746484D01*
X6851015Y-3746484D02*
X6851015Y-3641722D01*
X6851015Y-3641722D02*
X6841491Y-3622674D01*
X6841491Y-3622674D02*
X6822443Y-3613150D01*
X6822443Y-3613150D02*
X6784348Y-3613150D01*
X6784348Y-3613150D02*
X6765301Y-3622674D01*
X6851015Y-3736960D02*
X6831967Y-3746484D01*
X6831967Y-3746484D02*
X6784348Y-3746484D01*
X6784348Y-3746484D02*
X6765301Y-3736960D01*
X6765301Y-3736960D02*
X6755777Y-3717912D01*
X6755777Y-3717912D02*
X6755777Y-3698865D01*
X6755777Y-3698865D02*
X6765301Y-3679817D01*
X6765301Y-3679817D02*
X6784348Y-3670293D01*
X6784348Y-3670293D02*
X6831967Y-3670293D01*
X6831967Y-3670293D02*
X6851015Y-3660769D01*
X6946253Y-3613150D02*
X6946253Y-3813150D01*
X6946253Y-3622674D02*
X6965301Y-3613150D01*
X6965301Y-3613150D02*
X7003396Y-3613150D01*
X7003396Y-3613150D02*
X7022443Y-3622674D01*
X7022443Y-3622674D02*
X7031967Y-3632198D01*
X7031967Y-3632198D02*
X7041491Y-3651246D01*
X7041491Y-3651246D02*
X7041491Y-3708388D01*
X7041491Y-3708388D02*
X7031967Y-3727436D01*
X7031967Y-3727436D02*
X7022443Y-3736960D01*
X7022443Y-3736960D02*
X7003396Y-3746484D01*
X7003396Y-3746484D02*
X6965301Y-3746484D01*
X6965301Y-3746484D02*
X6946253Y-3736960D01*
X7127205Y-3727436D02*
X7136729Y-3736960D01*
X7136729Y-3736960D02*
X7127205Y-3746484D01*
X7127205Y-3746484D02*
X7117682Y-3736960D01*
X7117682Y-3736960D02*
X7127205Y-3727436D01*
X7127205Y-3727436D02*
X7127205Y-3746484D01*
X7127205Y-3622674D02*
X7136729Y-3632198D01*
X7136729Y-3632198D02*
X7127205Y-3641722D01*
X7127205Y-3641722D02*
X7117682Y-3632198D01*
X7117682Y-3632198D02*
X7127205Y-3622674D01*
X7127205Y-3622674D02*
X7127205Y-3641722D01*
M02*
