G04 #@! TF.GenerationSoftware,KiCad,Pcbnew,7.0.5-0*
G04 #@! TF.CreationDate,2023-12-12T07:42:38-05:00*
G04 #@! TF.ProjectId,12v5VBuck,31327635-5642-4756-936b-2e6b69636164,rev?*
G04 #@! TF.SameCoordinates,Original*
G04 #@! TF.FileFunction,Legend,Bot*
G04 #@! TF.FilePolarity,Positive*
%FSLAX46Y46*%
G04 Gerber Fmt 4.6, Leading zero omitted, Abs format (unit mm)*
G04 Created by KiCad (PCBNEW 7.0.5-0) date 2023-12-12 07:42:38*
%MOMM*%
%LPD*%
G01*
G04 APERTURE LIST*
G04 Aperture macros list*
%AMRoundRect*
0 Rectangle with rounded corners*
0 $1 Rounding radius*
0 $2 $3 $4 $5 $6 $7 $8 $9 X,Y pos of 4 corners*
0 Add a 4 corners polygon primitive as box body*
4,1,4,$2,$3,$4,$5,$6,$7,$8,$9,$2,$3,0*
0 Add four circle primitives for the rounded corners*
1,1,$1+$1,$2,$3*
1,1,$1+$1,$4,$5*
1,1,$1+$1,$6,$7*
1,1,$1+$1,$8,$9*
0 Add four rect primitives between the rounded corners*
20,1,$1+$1,$2,$3,$4,$5,0*
20,1,$1+$1,$4,$5,$6,$7,0*
20,1,$1+$1,$6,$7,$8,$9,0*
20,1,$1+$1,$8,$9,$2,$3,0*%
G04 Aperture macros list end*
%ADD10C,0.254000*%
%ADD11C,0.150000*%
%ADD12C,0.200000*%
%ADD13C,0.120000*%
%ADD14R,1.800000X1.150000*%
%ADD15C,1.701800*%
%ADD16RoundRect,0.250000X-0.262500X-0.450000X0.262500X-0.450000X0.262500X0.450000X-0.262500X0.450000X0*%
%ADD17RoundRect,0.250000X-0.250000X-0.475000X0.250000X-0.475000X0.250000X0.475000X-0.250000X0.475000X0*%
%ADD18RoundRect,0.250000X-0.450000X0.262500X-0.450000X-0.262500X0.450000X-0.262500X0.450000X0.262500X0*%
G04 APERTURE END LIST*
D10*
X66211666Y-33553365D02*
X66272142Y-33613842D01*
X66272142Y-33613842D02*
X66453571Y-33674318D01*
X66453571Y-33674318D02*
X66574523Y-33674318D01*
X66574523Y-33674318D02*
X66755952Y-33613842D01*
X66755952Y-33613842D02*
X66876904Y-33492889D01*
X66876904Y-33492889D02*
X66937381Y-33371937D01*
X66937381Y-33371937D02*
X66997857Y-33130032D01*
X66997857Y-33130032D02*
X66997857Y-32948603D01*
X66997857Y-32948603D02*
X66937381Y-32706699D01*
X66937381Y-32706699D02*
X66876904Y-32585746D01*
X66876904Y-32585746D02*
X66755952Y-32464794D01*
X66755952Y-32464794D02*
X66574523Y-32404318D01*
X66574523Y-32404318D02*
X66453571Y-32404318D01*
X66453571Y-32404318D02*
X66272142Y-32464794D01*
X66272142Y-32464794D02*
X66211666Y-32525270D01*
X65788333Y-32404318D02*
X64941666Y-32404318D01*
X64941666Y-32404318D02*
X65485952Y-33674318D01*
D11*
X66011666Y-20229819D02*
X66344999Y-19753628D01*
X66583094Y-20229819D02*
X66583094Y-19229819D01*
X66583094Y-19229819D02*
X66202142Y-19229819D01*
X66202142Y-19229819D02*
X66106904Y-19277438D01*
X66106904Y-19277438D02*
X66059285Y-19325057D01*
X66059285Y-19325057D02*
X66011666Y-19420295D01*
X66011666Y-19420295D02*
X66011666Y-19563152D01*
X66011666Y-19563152D02*
X66059285Y-19658390D01*
X66059285Y-19658390D02*
X66106904Y-19706009D01*
X66106904Y-19706009D02*
X66202142Y-19753628D01*
X66202142Y-19753628D02*
X66583094Y-19753628D01*
X65106904Y-19229819D02*
X65583094Y-19229819D01*
X65583094Y-19229819D02*
X65630713Y-19706009D01*
X65630713Y-19706009D02*
X65583094Y-19658390D01*
X65583094Y-19658390D02*
X65487856Y-19610771D01*
X65487856Y-19610771D02*
X65249761Y-19610771D01*
X65249761Y-19610771D02*
X65154523Y-19658390D01*
X65154523Y-19658390D02*
X65106904Y-19706009D01*
X65106904Y-19706009D02*
X65059285Y-19801247D01*
X65059285Y-19801247D02*
X65059285Y-20039342D01*
X65059285Y-20039342D02*
X65106904Y-20134580D01*
X65106904Y-20134580D02*
X65154523Y-20182200D01*
X65154523Y-20182200D02*
X65249761Y-20229819D01*
X65249761Y-20229819D02*
X65487856Y-20229819D01*
X65487856Y-20229819D02*
X65583094Y-20182200D01*
X65583094Y-20182200D02*
X65630713Y-20134580D01*
X63778306Y-25958333D02*
X63825926Y-25910714D01*
X63825926Y-25910714D02*
X63873545Y-25767857D01*
X63873545Y-25767857D02*
X63873545Y-25672619D01*
X63873545Y-25672619D02*
X63825926Y-25529762D01*
X63825926Y-25529762D02*
X63730687Y-25434524D01*
X63730687Y-25434524D02*
X63635449Y-25386905D01*
X63635449Y-25386905D02*
X63444973Y-25339286D01*
X63444973Y-25339286D02*
X63302116Y-25339286D01*
X63302116Y-25339286D02*
X63111640Y-25386905D01*
X63111640Y-25386905D02*
X63016402Y-25434524D01*
X63016402Y-25434524D02*
X62921164Y-25529762D01*
X62921164Y-25529762D02*
X62873545Y-25672619D01*
X62873545Y-25672619D02*
X62873545Y-25767857D01*
X62873545Y-25767857D02*
X62921164Y-25910714D01*
X62921164Y-25910714D02*
X62968783Y-25958333D01*
X62968783Y-26339286D02*
X62921164Y-26386905D01*
X62921164Y-26386905D02*
X62873545Y-26482143D01*
X62873545Y-26482143D02*
X62873545Y-26720238D01*
X62873545Y-26720238D02*
X62921164Y-26815476D01*
X62921164Y-26815476D02*
X62968783Y-26863095D01*
X62968783Y-26863095D02*
X63064021Y-26910714D01*
X63064021Y-26910714D02*
X63159259Y-26910714D01*
X63159259Y-26910714D02*
X63302116Y-26863095D01*
X63302116Y-26863095D02*
X63873545Y-26291667D01*
X63873545Y-26291667D02*
X63873545Y-26910714D01*
X62259580Y-22018333D02*
X62307200Y-21970714D01*
X62307200Y-21970714D02*
X62354819Y-21827857D01*
X62354819Y-21827857D02*
X62354819Y-21732619D01*
X62354819Y-21732619D02*
X62307200Y-21589762D01*
X62307200Y-21589762D02*
X62211961Y-21494524D01*
X62211961Y-21494524D02*
X62116723Y-21446905D01*
X62116723Y-21446905D02*
X61926247Y-21399286D01*
X61926247Y-21399286D02*
X61783390Y-21399286D01*
X61783390Y-21399286D02*
X61592914Y-21446905D01*
X61592914Y-21446905D02*
X61497676Y-21494524D01*
X61497676Y-21494524D02*
X61402438Y-21589762D01*
X61402438Y-21589762D02*
X61354819Y-21732619D01*
X61354819Y-21732619D02*
X61354819Y-21827857D01*
X61354819Y-21827857D02*
X61402438Y-21970714D01*
X61402438Y-21970714D02*
X61450057Y-22018333D01*
X61354819Y-22875476D02*
X61354819Y-22685000D01*
X61354819Y-22685000D02*
X61402438Y-22589762D01*
X61402438Y-22589762D02*
X61450057Y-22542143D01*
X61450057Y-22542143D02*
X61592914Y-22446905D01*
X61592914Y-22446905D02*
X61783390Y-22399286D01*
X61783390Y-22399286D02*
X62164342Y-22399286D01*
X62164342Y-22399286D02*
X62259580Y-22446905D01*
X62259580Y-22446905D02*
X62307200Y-22494524D01*
X62307200Y-22494524D02*
X62354819Y-22589762D01*
X62354819Y-22589762D02*
X62354819Y-22780238D01*
X62354819Y-22780238D02*
X62307200Y-22875476D01*
X62307200Y-22875476D02*
X62259580Y-22923095D01*
X62259580Y-22923095D02*
X62164342Y-22970714D01*
X62164342Y-22970714D02*
X61926247Y-22970714D01*
X61926247Y-22970714D02*
X61831009Y-22923095D01*
X61831009Y-22923095D02*
X61783390Y-22875476D01*
X61783390Y-22875476D02*
X61735771Y-22780238D01*
X61735771Y-22780238D02*
X61735771Y-22589762D01*
X61735771Y-22589762D02*
X61783390Y-22494524D01*
X61783390Y-22494524D02*
X61831009Y-22446905D01*
X61831009Y-22446905D02*
X61926247Y-22399286D01*
X62321666Y-20229819D02*
X62654999Y-19753628D01*
X62893094Y-20229819D02*
X62893094Y-19229819D01*
X62893094Y-19229819D02*
X62512142Y-19229819D01*
X62512142Y-19229819D02*
X62416904Y-19277438D01*
X62416904Y-19277438D02*
X62369285Y-19325057D01*
X62369285Y-19325057D02*
X62321666Y-19420295D01*
X62321666Y-19420295D02*
X62321666Y-19563152D01*
X62321666Y-19563152D02*
X62369285Y-19658390D01*
X62369285Y-19658390D02*
X62416904Y-19706009D01*
X62416904Y-19706009D02*
X62512142Y-19753628D01*
X62512142Y-19753628D02*
X62893094Y-19753628D01*
X61464523Y-19563152D02*
X61464523Y-20229819D01*
X61702618Y-19182200D02*
X61940713Y-19896485D01*
X61940713Y-19896485D02*
X61321666Y-19896485D01*
X63718306Y-28088333D02*
X63765926Y-28040714D01*
X63765926Y-28040714D02*
X63813545Y-27897857D01*
X63813545Y-27897857D02*
X63813545Y-27802619D01*
X63813545Y-27802619D02*
X63765926Y-27659762D01*
X63765926Y-27659762D02*
X63670687Y-27564524D01*
X63670687Y-27564524D02*
X63575449Y-27516905D01*
X63575449Y-27516905D02*
X63384973Y-27469286D01*
X63384973Y-27469286D02*
X63242116Y-27469286D01*
X63242116Y-27469286D02*
X63051640Y-27516905D01*
X63051640Y-27516905D02*
X62956402Y-27564524D01*
X62956402Y-27564524D02*
X62861164Y-27659762D01*
X62861164Y-27659762D02*
X62813545Y-27802619D01*
X62813545Y-27802619D02*
X62813545Y-27897857D01*
X62813545Y-27897857D02*
X62861164Y-28040714D01*
X62861164Y-28040714D02*
X62908783Y-28088333D01*
X63813545Y-29040714D02*
X63813545Y-28469286D01*
X63813545Y-28755000D02*
X62813545Y-28755000D01*
X62813545Y-28755000D02*
X62956402Y-28659762D01*
X62956402Y-28659762D02*
X63051640Y-28564524D01*
X63051640Y-28564524D02*
X63099259Y-28469286D01*
X58871666Y-20329819D02*
X59204999Y-19853628D01*
X59443094Y-20329819D02*
X59443094Y-19329819D01*
X59443094Y-19329819D02*
X59062142Y-19329819D01*
X59062142Y-19329819D02*
X58966904Y-19377438D01*
X58966904Y-19377438D02*
X58919285Y-19425057D01*
X58919285Y-19425057D02*
X58871666Y-19520295D01*
X58871666Y-19520295D02*
X58871666Y-19663152D01*
X58871666Y-19663152D02*
X58919285Y-19758390D01*
X58919285Y-19758390D02*
X58966904Y-19806009D01*
X58966904Y-19806009D02*
X59062142Y-19853628D01*
X59062142Y-19853628D02*
X59443094Y-19853628D01*
X58538332Y-19329819D02*
X57919285Y-19329819D01*
X57919285Y-19329819D02*
X58252618Y-19710771D01*
X58252618Y-19710771D02*
X58109761Y-19710771D01*
X58109761Y-19710771D02*
X58014523Y-19758390D01*
X58014523Y-19758390D02*
X57966904Y-19806009D01*
X57966904Y-19806009D02*
X57919285Y-19901247D01*
X57919285Y-19901247D02*
X57919285Y-20139342D01*
X57919285Y-20139342D02*
X57966904Y-20234580D01*
X57966904Y-20234580D02*
X58014523Y-20282200D01*
X58014523Y-20282200D02*
X58109761Y-20329819D01*
X58109761Y-20329819D02*
X58395475Y-20329819D01*
X58395475Y-20329819D02*
X58490713Y-20282200D01*
X58490713Y-20282200D02*
X58538332Y-20234580D01*
X58891666Y-25101640D02*
X58939285Y-25149260D01*
X58939285Y-25149260D02*
X59082142Y-25196879D01*
X59082142Y-25196879D02*
X59177380Y-25196879D01*
X59177380Y-25196879D02*
X59320237Y-25149260D01*
X59320237Y-25149260D02*
X59415475Y-25054021D01*
X59415475Y-25054021D02*
X59463094Y-24958783D01*
X59463094Y-24958783D02*
X59510713Y-24768307D01*
X59510713Y-24768307D02*
X59510713Y-24625450D01*
X59510713Y-24625450D02*
X59463094Y-24434974D01*
X59463094Y-24434974D02*
X59415475Y-24339736D01*
X59415475Y-24339736D02*
X59320237Y-24244498D01*
X59320237Y-24244498D02*
X59177380Y-24196879D01*
X59177380Y-24196879D02*
X59082142Y-24196879D01*
X59082142Y-24196879D02*
X58939285Y-24244498D01*
X58939285Y-24244498D02*
X58891666Y-24292117D01*
X58034523Y-24530212D02*
X58034523Y-25196879D01*
X58272618Y-24149260D02*
X58510713Y-24863545D01*
X58510713Y-24863545D02*
X57891666Y-24863545D01*
X60724580Y-28195393D02*
X60772200Y-28147774D01*
X60772200Y-28147774D02*
X60819819Y-28004917D01*
X60819819Y-28004917D02*
X60819819Y-27909679D01*
X60819819Y-27909679D02*
X60772200Y-27766822D01*
X60772200Y-27766822D02*
X60676961Y-27671584D01*
X60676961Y-27671584D02*
X60581723Y-27623965D01*
X60581723Y-27623965D02*
X60391247Y-27576346D01*
X60391247Y-27576346D02*
X60248390Y-27576346D01*
X60248390Y-27576346D02*
X60057914Y-27623965D01*
X60057914Y-27623965D02*
X59962676Y-27671584D01*
X59962676Y-27671584D02*
X59867438Y-27766822D01*
X59867438Y-27766822D02*
X59819819Y-27909679D01*
X59819819Y-27909679D02*
X59819819Y-28004917D01*
X59819819Y-28004917D02*
X59867438Y-28147774D01*
X59867438Y-28147774D02*
X59915057Y-28195393D01*
X59819819Y-29100155D02*
X59819819Y-28623965D01*
X59819819Y-28623965D02*
X60296009Y-28576346D01*
X60296009Y-28576346D02*
X60248390Y-28623965D01*
X60248390Y-28623965D02*
X60200771Y-28719203D01*
X60200771Y-28719203D02*
X60200771Y-28957298D01*
X60200771Y-28957298D02*
X60248390Y-29052536D01*
X60248390Y-29052536D02*
X60296009Y-29100155D01*
X60296009Y-29100155D02*
X60391247Y-29147774D01*
X60391247Y-29147774D02*
X60629342Y-29147774D01*
X60629342Y-29147774D02*
X60724580Y-29100155D01*
X60724580Y-29100155D02*
X60772200Y-29052536D01*
X60772200Y-29052536D02*
X60819819Y-28957298D01*
X60819819Y-28957298D02*
X60819819Y-28719203D01*
X60819819Y-28719203D02*
X60772200Y-28623965D01*
X60772200Y-28623965D02*
X60724580Y-28576346D01*
X69361666Y-28029819D02*
X69694999Y-27553628D01*
X69933094Y-28029819D02*
X69933094Y-27029819D01*
X69933094Y-27029819D02*
X69552142Y-27029819D01*
X69552142Y-27029819D02*
X69456904Y-27077438D01*
X69456904Y-27077438D02*
X69409285Y-27125057D01*
X69409285Y-27125057D02*
X69361666Y-27220295D01*
X69361666Y-27220295D02*
X69361666Y-27363152D01*
X69361666Y-27363152D02*
X69409285Y-27458390D01*
X69409285Y-27458390D02*
X69456904Y-27506009D01*
X69456904Y-27506009D02*
X69552142Y-27553628D01*
X69552142Y-27553628D02*
X69933094Y-27553628D01*
X68980713Y-27125057D02*
X68933094Y-27077438D01*
X68933094Y-27077438D02*
X68837856Y-27029819D01*
X68837856Y-27029819D02*
X68599761Y-27029819D01*
X68599761Y-27029819D02*
X68504523Y-27077438D01*
X68504523Y-27077438D02*
X68456904Y-27125057D01*
X68456904Y-27125057D02*
X68409285Y-27220295D01*
X68409285Y-27220295D02*
X68409285Y-27315533D01*
X68409285Y-27315533D02*
X68456904Y-27458390D01*
X68456904Y-27458390D02*
X69028332Y-28029819D01*
X69028332Y-28029819D02*
X68409285Y-28029819D01*
D12*
X64400000Y-32275000D02*
X67600000Y-32275000D01*
X67600000Y-33925000D02*
X63800000Y-33925000D01*
D13*
X64717936Y-17390000D02*
X65172064Y-17390000D01*
X64717936Y-18860000D02*
X65172064Y-18860000D01*
X65447474Y-25650000D02*
X65969978Y-25650000D01*
X65447474Y-27120000D02*
X65969978Y-27120000D01*
X59338748Y-21220000D02*
X59861252Y-21220000D01*
X59338748Y-22690000D02*
X59861252Y-22690000D01*
X61027936Y-17390000D02*
X61482064Y-17390000D01*
X61027936Y-18860000D02*
X61482064Y-18860000D01*
X65447474Y-27760000D02*
X65969978Y-27760000D01*
X65447474Y-29230000D02*
X65969978Y-29230000D01*
X57527936Y-17440000D02*
X57982064Y-17440000D01*
X57527936Y-18910000D02*
X57982064Y-18910000D01*
X57613748Y-25617060D02*
X58136252Y-25617060D01*
X57613748Y-27087060D02*
X58136252Y-27087060D01*
X57613748Y-27707060D02*
X58136252Y-27707060D01*
X57613748Y-29177060D02*
X58136252Y-29177060D01*
X69810000Y-24927936D02*
X69810000Y-25382064D01*
X68340000Y-24927936D02*
X68340000Y-25382064D01*
%LPC*%
D14*
X67300000Y-33100000D03*
X64700000Y-33100000D03*
D15*
X60475001Y-30775000D03*
X56974998Y-30775000D03*
X68235001Y-30765000D03*
X64734998Y-30765000D03*
D16*
X64032500Y-18125000D03*
X65857500Y-18125000D03*
D17*
X64758726Y-26385000D03*
X66658726Y-26385000D03*
X58650000Y-21955000D03*
X60550000Y-21955000D03*
D16*
X60342500Y-18125000D03*
X62167500Y-18125000D03*
D17*
X64758726Y-28495000D03*
X66658726Y-28495000D03*
D16*
X56842500Y-18175000D03*
X58667500Y-18175000D03*
D17*
X56925000Y-26352060D03*
X58825000Y-26352060D03*
X56925000Y-28442060D03*
X58825000Y-28442060D03*
D18*
X69075000Y-24242500D03*
X69075000Y-26067500D03*
%LPD*%
M02*
